<svg width="368" height="361" viewBox="0 0 368 361" fill="none" xmlns="http://www.w3.org/2000/svg">
<g clip-path="url(#clip0_1167_1457)">
<circle cx="189.851" cy="180.586" r="173.848" transform="rotate(-48.3348 189.851 180.586)" fill="url(#paint0_linear_1167_1457)"></circle>
<path d="M36.0558 289.492H24.2106V233.853H63.5834V244.28H36.0558V256.042H62.9995V266.469H36.0558V289.492ZM90.3009 290.493C77.0376 290.493 69.0296 280.816 69.0296 269.305C69.0296 257.877 77.0376 248.2 90.3009 248.2C103.648 248.2 111.656 257.877 111.656 269.305C111.656 280.816 103.648 290.493 90.3009 290.493ZM90.3009 281.067C96.8908 281.067 100.645 275.644 100.645 269.305C100.645 263.049 96.8908 257.626 90.3009 257.626C83.711 257.626 80.0406 263.049 80.0406 269.305C80.0406 275.644 83.711 281.067 90.3009 281.067ZM130.109 289.492H119.515V249.201H130.109V254.707C132.945 251.12 137.95 248.2 142.955 248.2V258.544C142.204 258.377 141.203 258.294 140.036 258.294C136.532 258.294 131.861 260.296 130.109 262.882V289.492ZM196.205 289.492H184.943L176.435 262.048L167.926 289.492H156.581L144.319 249.201H155.33L162.838 276.312L171.68 249.201H181.106L189.948 276.312L197.456 249.201H208.467L196.205 289.492ZM248.47 289.492H237.876V285.321C235.123 288.574 230.368 290.493 225.113 290.493C218.69 290.493 211.099 286.155 211.099 277.146C211.099 267.72 218.69 264.133 225.113 264.133C230.452 264.133 235.207 265.885 237.876 269.055V263.632C237.876 259.545 234.372 256.876 229.034 256.876C224.696 256.876 220.692 258.461 217.272 261.63L213.268 254.54C218.189 250.202 224.529 248.2 230.869 248.2C240.045 248.2 248.47 251.871 248.47 263.466V289.492ZM229.367 283.319C232.787 283.319 236.124 282.151 237.876 279.815V274.81C236.124 272.475 232.787 271.307 229.367 271.307C225.196 271.307 221.776 273.476 221.776 277.396C221.776 281.15 225.196 283.319 229.367 283.319ZM269.572 289.492H258.978V249.201H269.572V254.707C272.408 251.12 277.413 248.2 282.418 248.2V258.544C281.667 258.377 280.666 258.294 279.498 258.294C275.995 258.294 271.323 260.296 269.572 262.882V289.492ZM327.409 289.492H316.732V284.32C313.562 288.324 309.141 290.493 304.302 290.493C294.126 290.493 286.451 282.818 286.451 269.388C286.451 256.208 294.042 248.2 304.302 248.2C309.057 248.2 313.562 250.286 316.732 254.373V233.853H327.409V289.492ZM307.556 281.067C311.143 281.067 314.98 279.148 316.732 276.479V262.214C314.98 259.545 311.143 257.626 307.556 257.626C301.55 257.626 297.379 262.381 297.379 269.388C297.379 276.312 301.55 281.067 307.556 281.067Z" fill="white"></path>
<path d="M133.761 189.633H121.916V133.994H147.942C160.038 133.994 166.627 142.169 166.627 151.928C166.627 161.605 159.954 169.863 147.942 169.863H133.761V189.633ZM146.357 159.436C151.028 159.436 154.532 156.516 154.532 151.928C154.532 147.257 151.028 144.421 146.357 144.421H133.761V159.436H146.357ZM193.74 190.634C183.063 190.634 175.388 187.047 170.216 181.792L176.639 172.783C180.56 176.87 186.649 180.29 194.324 180.29C200.83 180.29 204 177.287 204 174.117C204 164.274 171.968 171.031 171.968 150.093C171.968 140.834 179.976 133.16 193.073 133.16C201.915 133.16 209.255 135.829 214.761 140.917L208.171 149.593C203.667 145.422 197.66 143.503 191.988 143.503C186.9 143.503 184.064 145.756 184.064 149.092C184.064 157.934 216.012 152.012 216.012 172.783C216.012 182.959 208.755 190.634 193.74 190.634Z" fill="white"></path>
<path d="M344.798 39.4566C353.439 48.0972 361.359 56.5354 368.56 64.771C368.56 67.0662 365.679 69.8564 359.919 73.1417C358.299 74.3568 353.259 76.922 344.798 80.8373C344.168 81.5573 341.513 82.6824 336.832 84.2125C336.832 85.0676 329.407 87.5428 314.556 91.6381C302.315 94.5183 291.739 95.9584 282.828 95.9584C281.793 95.9584 279.835 96.1609 276.955 96.566L275.673 96.296C273.602 96.476 271.96 96.566 270.745 96.566L268.922 96.296L267.707 96.566C258.841 96.566 245.138 94.6083 226.596 90.693C220.881 88.8479 215.548 87.5203 210.598 86.7102C172.525 73.7492 145.567 67.2687 129.726 67.2687L129.119 67.5387C127.679 67.3587 126.959 67.1562 126.959 66.9312L125.068 67.2687C117.328 67.2687 111.882 67.5837 108.732 68.2138V68.8213C111.072 71.8816 113.548 76.8094 116.158 83.605C119.218 93.0107 120.748 101.044 120.748 107.704L120.478 108.312C120.478 108.492 120.568 108.582 120.748 108.582L120.478 110.135V110.742C120.478 114.882 119.758 120.238 118.318 126.808C116.248 136.259 113.683 143.37 110.622 148.14C110.622 149.085 108.462 153.09 104.142 160.156C102.387 163.351 99.5964 167.064 95.7711 171.294C88.4806 178.945 82.2026 183.985 76.9372 186.415C70.0066 191.546 62.2885 194.111 53.7829 194.111V194.381L52.2303 194.111H49.4626C39.5618 194.111 30.6286 189.678 22.663 180.812C16.9025 171.632 14.0223 163.621 14.0223 156.781L13.6848 152.46C14.3148 144.99 15.4399 138.307 17.06 132.411C17.4201 132.141 19.2877 127.798 22.663 119.383C26.9833 112.587 29.1435 109.099 29.1435 108.919C27.8834 103.789 27.2533 99.2662 27.2533 95.3509C27.2533 89.9055 28.2884 84.9551 30.3586 80.4997C30.4486 77.5295 34.5664 71.4765 42.712 62.3408C50.5876 56.7154 57.0681 53.4076 62.1535 52.4176C62.1535 51.8325 65.1238 51.4275 71.0642 51.2025C76.3296 51.6075 79.4124 51.9225 80.3124 52.1475C80.5375 52.1475 80.65 52.035 80.65 51.81C84.1152 51.81 90.1907 54.1727 98.8764 58.8981C101.667 61.5533 103.197 62.9034 103.467 62.9484C105.807 62.5433 107.675 62.3408 109.07 62.3408V62.6109C117.125 60.9907 125.248 60.1807 133.439 60.1807C140.82 60.1807 157.988 62.3408 184.946 66.6612C188.771 67.7863 193.721 68.7088 199.797 69.4289C200.337 69.4289 202.182 69.9464 205.332 70.9815C206.952 70.9815 214.355 71.7916 227.541 73.4117C227.766 73.4117 227.879 73.3217 227.879 73.1417C232.424 73.5017 238.275 73.7942 245.43 74.0192C245.79 73.8392 246.218 73.7492 246.713 73.7492C246.893 73.7492 246.983 73.8392 246.983 74.0192C255.533 73.6142 265.209 72.6016 276.01 70.9815C283.976 69.6314 292.504 67.2687 301.595 63.8935C304.52 63.8935 311.72 60.4957 323.196 53.7002C323.916 52.4851 325.874 51.3375 329.069 50.2574L342.368 39.7941C343.178 39.5691 343.988 39.4566 344.798 39.4566ZM338.655 49.0423H338.992C340.433 48.2772 341.153 47.7597 341.153 47.4897V46.8821L340.815 46.2746C340.005 46.2746 339.285 47.1972 338.655 49.0423ZM336.832 49.9874H337.102C337.507 49.9874 337.71 49.7849 337.71 49.3798H337.44C337.035 49.4248 336.832 49.6273 336.832 49.9874ZM342.368 53.7002L343.313 55.2528C344.078 55.2528 344.798 54.5327 345.473 53.0926C345.158 52.2375 344.843 51.81 344.528 51.81H344.19C342.975 52.4401 342.368 53.0701 342.368 53.7002ZM329.677 61.0582H330.352C336.787 59.2581 340.388 57.728 341.153 56.4679C340.703 55.7928 340.478 55.2753 340.478 54.9153H339.6C332.984 58.6505 329.677 60.6982 329.677 61.0582ZM31.5737 95.6209C31.5737 101.201 31.9787 103.992 32.7888 103.992H33.4638C34.7689 101.696 38.1442 97.7811 43.5896 92.2456C45.7048 91.3006 48.2925 89.2529 51.3527 86.1027C59.8134 79.8022 71.6493 73.6142 86.8604 67.5387C87.8055 67.5387 91.4958 66.3236 97.9313 63.8935V63.5559C88.9306 58.0205 79.8849 55.2528 70.7942 55.2528C64.8087 55.2528 57.6082 57.818 49.1925 62.9484C37.4466 71.8591 31.5737 82.7499 31.5737 95.6209ZM349.456 58.628V59.8431H349.793C350.198 59.8431 350.401 59.6406 350.401 59.2356C350.401 58.8306 350.198 58.628 349.793 58.628H349.456ZM269.867 76.1794C269.642 76.1794 269.53 76.0894 269.53 75.9094C258.684 76.9445 250.156 77.552 243.945 77.732C243.54 77.552 243.225 77.462 243 77.462L242.392 77.732L241.785 77.462L240.232 77.732C238.117 77.552 236.475 77.462 235.304 77.462C235.304 78.2271 239.625 78.7446 248.265 79.0146C248.445 79.0146 248.535 78.9021 248.535 78.6771L250.088 79.0146C251.168 79.0146 252.091 78.9021 252.856 78.6771C253.936 78.9021 254.566 79.0146 254.746 79.0146C264.017 79.0146 277.27 77.2595 294.506 73.7492C304.272 69.7889 309.74 67.3137 310.91 66.3236C310.91 65.9636 311.203 65.4461 311.788 64.771L311.18 64.501C308.255 65.2211 304.25 66.8637 299.164 69.4289C293.629 71.499 283.863 73.7492 269.867 76.1794ZM342.638 70.0364V70.374H343.583C343.988 70.1489 344.303 70.0364 344.528 70.0364C344.708 70.4415 344.798 70.7565 344.798 70.9815C348.803 69.5414 351.593 67.8988 353.169 66.0536V65.7161C353.169 65.2211 352.763 64.906 351.953 64.771L342.638 70.0364ZM360.257 66.6612L359.919 67.8763H361.202V67.2687C361.202 66.8637 360.999 66.6612 360.594 66.6612H360.257ZM170.162 68.4838V68.8213C178.127 70.8465 192.529 73.7267 213.365 77.462C214.535 76.6069 215.255 76.1794 215.525 76.1794V75.9094C213.86 75.9094 213.028 75.7069 213.028 75.3018C212.848 75.3018 212.758 75.3918 212.758 75.5719C212.353 75.5719 211.52 75.3693 210.26 74.9643L209.652 75.3018C192.011 72.0166 178.938 69.7439 170.432 68.4838H170.162ZM346.688 75.3018H346.958C351.413 73.2317 354.924 71.274 357.489 69.4289V68.8213C357.084 68.8213 356.881 68.7088 356.881 68.4838C350.086 71.9491 346.688 74.2217 346.688 75.3018ZM93.3409 70.9815L92.6659 70.644L84.6328 72.8041C72.4818 77.6645 62.1085 83.335 53.5129 89.8155L42.9821 98.4561C39.6068 102.011 36.6366 105.612 34.0714 109.257C37.8067 116.413 42.4195 121.025 47.9099 123.096L55.3355 125.593C58.1257 125.773 60.4884 125.863 62.4236 125.863H62.7611C68.3415 125.863 75.4296 123.208 84.0252 117.898C84.8803 118.168 85.3078 118.46 85.3078 118.775V119.383C85.3078 121.813 81.3925 124.716 73.5619 128.091C69.7816 129.306 66.0688 129.914 62.4236 129.914H61.816C48.855 129.914 38.7742 124.671 31.5737 114.185H31.3036C29.4135 115.49 26.8258 120.53 23.5405 129.306C22.1004 132.501 20.4578 138.464 18.6127 147.195C18.6127 147.42 18.7252 147.532 18.9502 147.532C18.7252 150.503 18.6127 152.145 18.6127 152.46C18.6127 166.366 22.618 175.615 30.6286 180.205C32.2487 181.195 34.6339 182.028 37.7841 182.703L39.2693 182.365L40.8219 182.703C44.2421 182.703 49.08 181.465 55.3355 178.99C59.8809 177.46 63.7962 175.39 67.0814 172.779C67.6665 172.779 69.5116 171.564 72.6168 169.134C73.4269 169.134 76.5096 166.141 81.8651 160.156C85.8704 155.746 88.7506 151.83 90.5057 148.41C94.556 143.28 98.2688 137.002 101.644 129.576C105.559 121.655 107.517 116.097 107.517 112.902L109.677 100.886V95.3509C109.677 94.9008 109.767 94.4958 109.947 94.1358C109.767 93.7758 109.677 93.3482 109.677 92.8532C109.677 92.6732 109.767 92.5832 109.947 92.5832L108.732 84.8201C108.957 84.01 109.07 83.2899 109.07 82.6599C106.414 73.6142 104.254 69.0914 102.589 69.0914C102.184 69.0914 101.982 69.0013 101.982 68.8213C97.7513 69.4064 94.8711 70.1264 93.3409 70.9815ZM289.916 82.0524V82.3899C298.827 80.7248 309.313 77.642 321.374 73.1417C323.309 72.2416 324.434 71.5215 324.749 70.9815C324.569 70.5765 324.479 70.2614 324.479 70.0364H324.141C313.61 74.1317 302.202 78.1371 289.916 82.0524ZM319.821 77.462H320.428L327.854 75.5719V74.3568H326.639C323.714 75.7519 321.441 76.6744 319.821 77.1245V77.462ZM313.34 84.2125C321.171 82.1874 327.652 79.9372 332.782 77.462L333.119 76.8545H332.782L313.678 82.6599L313.34 84.2125ZM229.701 77.462V77.732C230.917 77.732 232.559 77.8445 234.629 78.0695H234.967V77.732L233.414 77.462H229.701ZM275.673 80.8373H277.563C278.508 80.8373 280.15 80.6347 282.491 80.2297V79.2846H282.153C277.833 79.6447 275.673 80.1622 275.673 80.8373ZM263.657 84.8201V85.1576C264.737 85.3826 265.367 85.4951 265.547 85.4951C265.862 85.4951 266.469 85.2701 267.369 84.8201L269.53 85.1576C271.87 84.7526 273.512 84.55 274.457 84.55H275.403V84.2125C275.313 83.8075 274.795 83.4025 273.85 82.9974C270.16 84.2125 266.762 84.8201 263.657 84.8201ZM253.463 85.1576V85.4951C255.128 85.4951 255.961 85.7876 255.961 86.3727V86.7102C255.961 87.1152 255.128 87.3178 253.463 87.3178V87.6553C253.958 87.6553 254.386 87.7453 254.746 87.9253C254.926 87.9253 255.016 87.8353 255.016 87.6553L256.569 87.9253H259.674C259.674 86.8002 260.079 85.8776 260.889 85.1576L257.784 84.8201H257.176L253.463 85.1576ZM261.834 85.1576V85.4951H263.049V85.1576H261.834ZM225.719 85.4951C225.719 85.9452 226.236 86.2377 227.271 86.3727L229.094 86.1027V85.7651C228.644 85.7651 227.519 85.6751 225.719 85.4951ZM266.424 91.9756V91.6381C266.064 91.8631 265.659 91.9756 265.209 91.9756V92.2456C267.594 92.2456 269.237 92.3582 270.137 92.5832C281.253 91.7281 290.726 90.1755 298.557 87.9253L308.075 85.7651V85.4951H307.197C294.506 87.7453 281.23 89.793 267.369 91.6381C267.369 91.8631 267.054 91.9756 266.424 91.9756ZM230.039 85.7651L229.701 86.3727C233.482 87.0027 237.285 87.4303 241.11 87.6553C241.335 87.6553 241.447 87.5428 241.447 87.3178L243 87.6553H245.43V87.3178C242.55 86.9127 237.42 86.3952 230.039 85.7651ZM246.375 87.3178V87.6553L250.088 87.9253L250.426 87.3178C249.346 87.0927 248.715 86.9802 248.535 86.9802L246.375 87.3178ZM115.82 103.046V103.992H116.428V103.654C116.428 103.249 116.225 103.046 115.82 103.046ZM111.5 133.289C109.025 138.284 107.787 141.164 107.787 141.929C104.367 148.275 101.914 152.078 100.429 153.338C100.069 153.563 99.6414 153.675 99.1464 153.675L98.5388 152.73L101.644 146.857C101.014 145.912 100.699 145.305 100.699 145.035H99.8214C98.4713 147.78 95.9961 152.1 92.3959 157.996C92.1709 158.356 92.0583 158.761 92.0583 159.211L93.611 158.941C94.016 159.976 94.2185 160.696 94.2185 161.101C94.0385 161.101 93.9485 161.191 93.9485 161.371H94.2185L101.037 154.013H101.307L102.859 154.283C104.704 150.773 106.774 146.25 109.07 140.714C110.6 137.879 111.612 135.516 112.107 133.626L111.5 133.289ZM44.5347 187.023H41.767C41.767 187.608 43.3196 188.013 46.4248 188.238C49.8001 188.238 54.4129 187.405 60.2634 185.74V184.525H59.3858C54.7955 186.19 49.8451 187.023 44.5347 187.023Z" fill="white"></path>
</g>
<defs>
<linearGradient id="paint0_linear_1167_1457" x1="231.525" y1="354.434" x2="249.871" y2="7.08158" gradientUnits="userSpaceOnUse">
<stop offset="0.268085" stop-color="#8F1F57"></stop>
<stop offset="1" stop-color="#FB41AA"></stop>
</linearGradient>
<clipPath id="clip0_1167_1457">
<rect width="367.863" height="361" fill="white"></rect>
</clipPath>
</defs>
</svg>