<svg width="1319" height="878" viewBox="0 0 1319 878" fill="none" xmlns="http://www.w3.org/2000/svg">
<rect width="1319" height="878" fill="url(#paint0_linear_1166_1564)"/>
<path d="M164.392 493.768C156.2 493.768 150.312 491.016 146.344 486.984L151.272 480.072C154.28 483.208 158.952 485.832 164.84 485.832C169.832 485.832 172.264 483.528 172.264 481.096C172.264 473.544 147.688 478.728 147.688 462.664C147.688 455.56 153.832 449.672 163.88 449.672C170.664 449.672 176.296 451.72 180.52 455.624L175.464 462.28C172.008 459.08 167.4 457.608 163.048 457.608C159.144 457.608 156.968 459.336 156.968 461.896C156.968 468.68 181.48 464.136 181.48 480.072C181.48 487.88 175.912 493.768 164.392 493.768ZM201.743 493.768C191.567 493.768 185.423 486.344 185.423 477.512C185.423 468.744 191.567 461.32 201.743 461.32C211.983 461.32 218.127 468.744 218.127 477.512C218.127 486.344 211.983 493.768 201.743 493.768ZM201.743 486.536C206.799 486.536 209.679 482.376 209.679 477.512C209.679 472.712 206.799 468.552 201.743 468.552C196.687 468.552 193.871 472.712 193.871 477.512C193.871 482.376 196.687 486.536 201.743 486.536ZM232.285 493H224.157V450.312H232.285V493ZM254.681 493.768C244.505 493.768 238.361 486.344 238.361 477.512C238.361 468.744 244.505 461.32 254.681 461.32C264.921 461.32 271.065 468.744 271.065 477.512C271.065 486.344 264.921 493.768 254.681 493.768ZM254.681 486.536C259.737 486.536 262.617 482.376 262.617 477.512C262.617 472.712 259.737 468.552 254.681 468.552C249.625 468.552 246.809 472.712 246.809 477.512C246.809 482.376 249.625 486.536 254.681 486.536ZM323.87 493H293.661V450.312H323.87V458.312H302.75V467.336H323.422V475.336H302.75V485H323.87V493ZM359.006 493H349.918L342.878 482.568L335.774 493H326.75L337.694 477.128L327.39 462.088H336.478L342.878 471.624L349.214 462.088H358.302L347.934 477.128L359.006 493ZM375.373 493.768C365.965 493.768 358.861 487.432 358.861 477.512C358.861 468.552 365.453 461.32 374.861 461.32C384.077 461.32 390.349 468.232 390.349 478.344V480.136H367.373C367.885 484.04 371.021 487.304 376.269 487.304C378.893 487.304 382.541 486.152 384.525 484.232L388.109 489.48C385.037 492.296 380.173 493.768 375.373 493.768ZM382.477 474.632C382.285 471.688 380.237 467.784 374.861 467.784C369.805 467.784 367.629 471.56 367.245 474.632H382.477ZM410.62 493.768C401.084 493.768 394.236 487.048 394.236 477.512C394.236 468.04 401.084 461.32 410.62 461.32C416.956 461.32 420.796 464.072 422.844 466.888L417.532 471.88C416.06 469.704 413.82 468.552 411.003 468.552C406.076 468.552 402.62 472.136 402.62 477.512C402.62 482.888 406.076 486.536 411.003 486.536C413.82 486.536 416.06 485.256 417.532 483.208L422.844 488.136C420.796 491.016 416.956 493.768 410.62 493.768ZM457.149 493H449.021V489.096C446.909 491.464 443.197 493.768 438.141 493.768C431.357 493.768 428.157 490.056 428.157 484.04V462.088H436.285V480.84C436.285 485.128 438.525 486.536 441.981 486.536C445.117 486.536 447.613 484.808 449.021 483.016V462.088H457.149V493ZM475.588 493.768C469.892 493.768 466.82 490.824 466.82 485.32V469.192H461.7V462.088H466.82V453.64H475.012V462.088H481.284V469.192H475.012V483.144C475.012 485.064 476.036 486.536 477.828 486.536C479.044 486.536 480.196 486.088 480.644 485.64L482.372 491.784C481.156 492.872 478.98 493.768 475.588 493.768ZM490.877 458.76C488.253 458.76 486.013 456.584 486.013 453.896C486.013 451.208 488.253 449.096 490.877 449.096C493.565 449.096 495.741 451.208 495.741 453.896C495.741 456.584 493.565 458.76 490.877 458.76ZM494.973 493H486.845V462.088H494.973V493ZM517.368 493.768C507.192 493.768 501.048 486.344 501.048 477.512C501.048 468.744 507.192 461.32 517.368 461.32C527.608 461.32 533.752 468.744 533.752 477.512C533.752 486.344 527.608 493.768 517.368 493.768ZM517.368 486.536C522.424 486.536 525.304 482.376 525.304 477.512C525.304 472.712 522.424 468.552 517.368 468.552C512.312 468.552 509.496 472.712 509.496 477.512C509.496 482.376 512.312 486.536 517.368 486.536ZM568.774 493H560.646V474.312C560.646 470.024 558.406 468.552 554.95 468.552C551.75 468.552 549.254 470.344 547.91 472.2V493H539.782V462.088H547.91V466.12C549.894 463.752 553.67 461.32 558.726 461.32C565.51 461.32 568.774 465.16 568.774 471.176V493ZM586.573 489.864C586.573 494.664 583.885 498.952 579.981 501.768L576.461 498.888C578.509 497.8 580.877 495.112 581.389 492.872C581.197 492.936 580.621 493.064 580.173 493.064C577.741 493.064 575.821 491.208 575.821 488.456C575.821 485.64 578.125 483.336 580.812 483.336C583.821 483.336 586.573 485.704 586.573 489.864ZM624.955 493.768C616.763 493.768 610.875 491.016 606.907 486.984L611.835 480.072C614.843 483.208 619.515 485.832 625.403 485.832C630.395 485.832 632.827 483.528 632.827 481.096C632.827 473.544 608.251 478.728 608.251 462.664C608.251 455.56 614.395 449.672 624.443 449.672C631.227 449.672 636.859 451.72 641.083 455.624L636.027 462.28C632.571 459.08 627.963 457.608 623.611 457.608C619.707 457.608 617.531 459.336 617.531 461.896C617.531 468.68 642.043 464.136 642.043 480.072C642.043 487.88 636.475 493.768 624.955 493.768ZM677.026 493H668.898V474.184C668.898 469.896 666.658 468.552 663.138 468.552C660.002 468.552 657.506 470.344 656.098 472.2V493H647.97V450.312H656.098V466.12C658.082 463.752 661.922 461.32 666.978 461.32C673.762 461.32 677.026 465.032 677.026 471.048V493ZM711.783 493H703.655V489.8C701.543 492.296 697.895 493.768 693.863 493.768C688.935 493.768 683.111 490.44 683.111 483.528C683.111 476.296 688.935 473.544 693.863 473.544C697.958 473.544 701.607 474.888 703.655 477.32V473.16C703.655 470.024 700.967 467.976 696.871 467.976C693.543 467.976 690.47 469.192 687.847 471.624L684.775 466.184C688.551 462.856 693.415 461.32 698.279 461.32C705.319 461.32 711.783 464.136 711.783 473.032V493ZM697.127 488.264C699.751 488.264 702.311 487.368 703.655 485.576V481.736C702.311 479.944 699.751 479.048 697.127 479.048C693.927 479.048 691.303 480.712 691.303 483.72C691.303 486.6 693.927 488.264 697.127 488.264ZM727.973 493H719.845V462.088H727.973V466.312C730.149 463.56 733.989 461.32 737.829 461.32V469.256C737.253 469.128 736.485 469.064 735.589 469.064C732.901 469.064 729.317 470.6 727.973 472.584V493ZM757.435 493.768C748.027 493.768 740.923 487.432 740.923 477.512C740.923 468.552 747.515 461.32 756.923 461.32C766.139 461.32 772.411 468.232 772.411 478.344V480.136H749.435C749.947 484.04 753.083 487.304 758.331 487.304C760.955 487.304 764.603 486.152 766.587 484.232L770.171 489.48C767.099 492.296 762.235 493.768 757.435 493.768ZM764.539 474.632C764.347 471.688 762.299 467.784 756.923 467.784C751.867 467.784 749.691 471.56 749.307 474.632H764.539ZM807.722 493H799.53V489.032C797.098 492.104 793.706 493.768 789.994 493.768C782.186 493.768 776.298 487.88 776.298 477.576C776.298 467.464 782.122 461.32 789.994 461.32C793.642 461.32 797.098 462.92 799.53 466.056V450.312H807.722V493ZM792.49 486.536C795.242 486.536 798.186 485.064 799.53 483.016V472.072C798.186 470.024 795.242 468.552 792.49 468.552C787.882 468.552 784.682 472.2 784.682 477.576C784.682 482.888 787.882 486.536 792.49 486.536ZM866.909 493H856.477L848.093 477.832H841.437V493H832.349V450.312H852.317C861.213 450.312 866.653 456.136 866.653 464.072C866.653 471.624 861.917 475.656 857.309 476.744L866.909 493ZM850.973 469.832C854.621 469.832 857.373 467.656 857.373 464.072C857.373 460.488 854.621 458.312 850.973 458.312H841.437V469.832H850.973ZM885.873 493.768C876.465 493.768 869.361 487.432 869.361 477.512C869.361 468.552 875.953 461.32 885.361 461.32C894.577 461.32 900.849 468.232 900.849 478.344V480.136H877.873C878.385 484.04 881.521 487.304 886.769 487.304C889.393 487.304 893.041 486.152 895.025 484.232L898.609 489.48C895.537 492.296 890.673 493.768 885.873 493.768ZM892.977 474.632C892.785 471.688 890.737 467.784 885.361 467.784C880.305 467.784 878.129 471.56 877.745 474.632H892.977ZM917.856 493.768C912.48 493.768 907.296 491.976 904.032 488.968L907.552 483.272C909.792 485.384 914.4 487.496 918.24 487.496C921.76 487.496 923.424 486.088 923.424 484.168C923.424 479.048 905.056 483.208 905.056 471.048C905.056 465.864 909.6 461.32 917.728 461.32C922.976 461.32 927.136 463.112 930.208 465.544L926.944 471.112C925.088 469.128 921.568 467.528 917.792 467.528C914.848 467.528 912.928 468.872 912.928 470.6C912.928 475.208 931.232 471.368 931.232 483.848C931.232 489.48 926.432 493.768 917.856 493.768ZM954.884 493.768C951.236 493.768 947.844 492.232 945.348 489.032V504.776H937.22V462.088H945.348V465.992C947.716 462.984 951.108 461.32 954.884 461.32C962.82 461.32 968.58 467.208 968.58 477.512C968.58 487.816 962.82 493.768 954.884 493.768ZM952.324 486.536C956.996 486.536 960.132 482.888 960.132 477.512C960.132 472.2 956.996 468.552 952.324 468.552C949.7 468.552 946.692 470.088 945.348 472.072V483.016C946.692 484.936 949.7 486.536 952.324 486.536ZM988.868 493.768C978.692 493.768 972.548 486.344 972.548 477.512C972.548 468.744 978.692 461.32 988.868 461.32C999.108 461.32 1005.25 468.744 1005.25 477.512C1005.25 486.344 999.108 493.768 988.868 493.768ZM988.868 486.536C993.924 486.536 996.804 482.376 996.804 477.512C996.804 472.712 993.924 468.552 988.868 468.552C983.812 468.552 980.996 472.712 980.996 477.512C980.996 482.376 983.812 486.536 988.868 486.536ZM1040.27 493H1032.15V474.312C1032.15 470.024 1029.91 468.552 1026.45 468.552C1023.25 468.552 1020.75 470.344 1019.41 472.2V493H1011.28V462.088H1019.41V466.12C1021.39 463.752 1025.17 461.32 1030.23 461.32C1037.01 461.32 1040.27 465.16 1040.27 471.176V493ZM1059.48 493.768C1054.1 493.768 1048.92 491.976 1045.66 488.968L1049.18 483.272C1051.42 485.384 1056.02 487.496 1059.86 487.496C1063.38 487.496 1065.05 486.088 1065.05 484.168C1065.05 479.048 1046.68 483.208 1046.68 471.048C1046.68 465.864 1051.22 461.32 1059.35 461.32C1064.6 461.32 1068.76 463.112 1071.83 465.544L1068.57 471.112C1066.71 469.128 1063.19 467.528 1059.42 467.528C1056.47 467.528 1054.55 468.872 1054.55 470.6C1054.55 475.208 1072.86 471.368 1072.86 483.848C1072.86 489.48 1068.06 493.768 1059.48 493.768ZM1082.88 458.76C1080.25 458.76 1078.01 456.584 1078.01 453.896C1078.01 451.208 1080.25 449.096 1082.88 449.096C1085.56 449.096 1087.74 451.208 1087.74 453.896C1087.74 456.584 1085.56 458.76 1082.88 458.76ZM1086.97 493H1078.84V462.088H1086.97V493ZM1103.16 483.08C1104.5 485.064 1107.51 486.536 1110.14 486.536C1114.87 486.536 1118.01 482.952 1118.01 477.576C1118.01 472.2 1114.87 468.552 1110.14 468.552C1107.51 468.552 1104.5 470.088 1103.16 472.136V483.08ZM1103.16 493H1095.03V450.312H1103.16V466.056C1105.59 462.92 1109.05 461.32 1112.7 461.32C1120.57 461.32 1126.39 467.464 1126.39 477.576C1126.39 487.88 1120.5 493.768 1112.7 493.768C1108.98 493.768 1105.59 492.104 1103.16 489.032V493ZM1136.56 458.76C1133.94 458.76 1131.7 456.584 1131.7 453.896C1131.7 451.208 1133.94 449.096 1136.56 449.096C1139.25 449.096 1141.43 451.208 1141.43 453.896C1141.43 456.584 1139.25 458.76 1136.56 458.76ZM1140.66 493H1132.53V462.088H1140.66V493ZM1156.85 493H1148.72V450.312H1156.85V493ZM1168.94 458.76C1166.32 458.76 1164.08 456.584 1164.08 453.896C1164.08 451.208 1166.32 449.096 1168.94 449.096C1171.63 449.096 1173.8 451.208 1173.8 453.896C1173.8 456.584 1171.63 458.76 1168.94 458.76ZM1173.04 493H1164.91V462.088H1173.04V493ZM1191.46 493.768C1185.77 493.768 1182.69 490.824 1182.69 485.32V469.192H1177.57V462.088H1182.69V453.64H1190.89V462.088H1197.16V469.192H1190.89V483.144C1190.89 485.064 1191.91 486.536 1193.7 486.536C1194.92 486.536 1196.07 486.088 1196.52 485.64L1198.25 491.784C1197.03 492.872 1194.85 493.768 1191.46 493.768ZM1201.63 505.096L1202.85 497.8C1203.55 498.12 1204.64 498.312 1205.41 498.312C1207.52 498.312 1208.93 497.736 1209.7 496.072L1210.85 493.448L1198.3 462.088H1207.01L1215.07 483.592L1223.14 462.088H1231.9L1217.38 498.056C1215.07 503.88 1210.98 505.416 1205.66 505.544C1204.7 505.544 1202.66 505.352 1201.63 505.096Z" fill="white"/>
<path d="M831 370.6C773.7 370.6 748.2 318.7 748.2 267.1C748.2 215.5 773.7 163.9 831 163.9C888 163.9 913.8 215.5 913.8 267.1C913.8 318.7 888 370.6 831 370.6ZM831 332.8C859.5 332.8 870.3 304 870.3 267.1C870.3 230.2 859.5 201.7 831 201.7C802.2 201.7 791.4 230.2 791.4 267.1C791.4 304 802.2 332.8 831 332.8ZM1002.94 370.3C978.635 370.3 958.235 362.2 944.135 349.6L963.035 316.9C973.835 327.1 985.235 332.5 1002.94 332.5C1035.94 332.5 1053.04 304.9 1053.04 276.1C1053.04 274.6 1053.04 273.1 1053.04 271.6C1043.44 285.1 1023.34 297.4 1001.44 297.4C965.435 297.4 933.035 274.9 933.035 232.3C933.035 193.3 964.235 163.6 1009.84 163.6C1070.44 163.6 1095.94 210.4 1095.94 267.1C1095.94 327.4 1062.04 370.3 1002.94 370.3ZM1013.44 260.8C1028.44 260.8 1043.14 253.9 1052.74 242.2C1050.94 223 1040.14 201.4 1011.94 201.4C989.135 201.4 976.535 217 976.535 230.8C976.535 251.8 994.835 260.8 1013.44 260.8Z" fill="white"/>
<path d="M105 361L1262 361" stroke="white"/>
<path d="M1171 314.884L1171 357.052L1161.68 357.052C1144.71 334.12 1138.91 327.4 1132.02 327.4C1127.15 327.4 1124.72 331.852 1124.72 336.472C1124.72 342.856 1127.24 347.728 1131.18 351.508L1123.29 358.312C1116.99 352.852 1114.13 344.536 1114.13 336.724C1114.13 324.796 1120.85 315.304 1132.02 315.304C1141.6 315.304 1149.92 323.2 1160.5 337.732L1160.5 314.884L1171 314.884ZM1172.01 284.593C1172.01 300.637 1157.48 307.777 1143.03 307.777C1128.58 307.777 1114.13 300.637 1114.13 284.593C1114.13 268.633 1128.58 261.409 1143.03 261.409C1157.48 261.409 1172.01 268.633 1172.01 284.593ZM1161.42 284.593C1161.42 276.613 1153.36 273.589 1143.03 273.589C1132.7 273.589 1124.72 276.613 1124.72 284.593C1124.72 292.657 1132.7 295.681 1143.03 295.681C1153.36 295.681 1161.42 292.657 1161.42 284.593ZM1171 212.427L1171 254.595L1161.68 254.595C1144.71 231.663 1138.91 224.943 1132.02 224.943C1127.15 224.943 1124.72 229.395 1124.72 234.015C1124.72 240.399 1127.24 245.271 1131.18 249.051L1123.29 255.855C1116.99 250.395 1114.13 242.079 1114.13 234.267C1114.13 222.339 1120.85 212.847 1132.02 212.847C1141.6 212.847 1149.92 220.743 1160.5 235.275L1160.5 212.427L1171 212.427ZM1172.01 181.128C1172.01 198.18 1158.9 205.32 1143.11 205.32C1126.14 205.32 1114.13 195.744 1114.13 179.196C1114.13 172.392 1116.48 166.68 1119.93 162.648L1129.08 168.024C1126.23 171.048 1124.72 174.24 1124.72 179.196C1124.72 187.428 1131.69 193.224 1140.59 193.224C1141.01 193.224 1141.35 193.224 1141.77 193.14C1137.99 190.536 1134.54 184.908 1134.54 178.776C1134.54 168.696 1140.84 159.708 1152.77 159.708C1163.69 159.708 1172.01 168.36 1172.01 181.128ZM1161.42 181.8C1161.42 175.332 1157.14 171.804 1153.19 171.804C1147.31 171.804 1144.79 176.844 1144.79 182.22C1144.79 186.42 1146.72 190.452 1150.08 193.14C1155.46 192.636 1161.42 189.612 1161.42 181.8Z" fill="white" fill-opacity="0.5"/>
<path d="M157.608 577.416C156.093 577.416 154.664 577.149 153.32 576.616C151.997 576.083 150.835 575.336 149.832 574.376C148.851 573.395 148.072 572.232 147.496 570.888C146.92 569.523 146.632 568.008 146.632 566.344C146.632 564.68 146.92 563.176 147.496 561.832C148.072 560.467 148.851 559.304 149.832 558.344C150.835 557.384 151.997 556.637 153.32 556.104C154.664 555.571 156.093 555.304 157.608 555.304C159.507 555.304 161.117 555.677 162.44 556.424C163.784 557.171 164.936 558.131 165.896 559.304L163.784 560.616C163.101 559.741 162.216 559.037 161.128 558.504C160.061 557.949 158.888 557.672 157.608 557.672C156.435 557.672 155.347 557.885 154.344 558.312C153.341 558.739 152.467 559.336 151.72 560.104C150.995 560.872 150.419 561.789 149.992 562.856C149.587 563.901 149.384 565.064 149.384 566.344C149.384 567.603 149.587 568.765 149.992 569.832C150.419 570.899 150.995 571.816 151.72 572.584C152.467 573.352 153.341 573.96 154.344 574.408C155.347 574.835 156.435 575.048 157.608 575.048C158.248 575.048 158.856 574.984 159.432 574.856C160.008 574.707 160.541 574.525 161.032 574.312C161.523 574.077 161.96 573.821 162.344 573.544C162.749 573.267 163.08 573 163.336 572.744V568.392H156.008V566.024H165.992V573.736C164.989 574.845 163.773 575.741 162.344 576.424C160.936 577.085 159.357 577.416 157.608 577.416ZM170.213 577V561.544H172.613V564.04C173.231 563.229 173.978 562.557 174.853 562.024C175.727 561.491 176.698 561.224 177.765 561.224V563.688C177.466 563.624 177.146 563.592 176.805 563.592C176.442 563.592 176.047 563.667 175.621 563.816C175.215 563.944 174.81 564.125 174.405 564.36C174.021 564.595 173.669 564.861 173.349 565.16C173.029 565.437 172.783 565.736 172.613 566.056V577H170.213ZM187.751 577.384C186.599 577.384 185.543 577.192 184.583 576.808C183.623 576.403 182.791 575.848 182.087 575.144C181.404 574.419 180.86 573.565 180.455 572.584C180.071 571.581 179.879 570.472 179.879 569.256C179.879 568.147 180.071 567.101 180.455 566.12C180.839 565.117 181.362 564.253 182.023 563.528C182.706 562.803 183.506 562.227 184.423 561.8C185.362 561.373 186.386 561.16 187.495 561.16C188.668 561.16 189.714 561.373 190.631 561.8C191.548 562.227 192.327 562.813 192.967 563.56C193.607 564.307 194.087 565.192 194.407 566.216C194.748 567.219 194.919 568.296 194.919 569.448V570.056H182.407C182.45 570.781 182.61 571.475 182.887 572.136C183.164 572.776 183.538 573.341 184.007 573.832C184.498 574.301 185.074 574.685 185.735 574.984C186.396 575.261 187.143 575.4 187.975 575.4C188.871 575.4 189.735 575.229 190.567 574.888C191.399 574.547 192.124 574.067 192.743 573.448L193.895 575.016C193.127 575.784 192.231 576.371 191.207 576.776C190.183 577.181 189.031 577.384 187.751 577.384ZM192.551 568.296C192.551 567.72 192.444 567.133 192.231 566.536C192.039 565.917 191.73 565.363 191.303 564.872C190.898 564.36 190.375 563.944 189.735 563.624C189.095 563.304 188.338 563.144 187.463 563.144C186.631 563.144 185.906 563.304 185.287 563.624C184.668 563.944 184.146 564.349 183.719 564.84C183.314 565.331 182.994 565.885 182.759 566.504C182.546 567.101 182.428 567.699 182.407 568.296H192.551ZM208.47 577V575.24C207.169 576.669 205.462 577.384 203.35 577.384C202.689 577.384 202.038 577.277 201.398 577.064C200.758 576.851 200.182 576.531 199.67 576.104C199.158 575.656 198.742 575.112 198.422 574.472C198.102 573.832 197.942 573.096 197.942 572.264C197.942 571.411 198.102 570.664 198.422 570.024C198.742 569.384 199.158 568.851 199.67 568.424C200.182 567.997 200.758 567.688 201.398 567.496C202.038 567.283 202.689 567.176 203.35 567.176C204.417 567.176 205.377 567.347 206.23 567.688C207.105 568.029 207.852 568.563 208.47 569.288V566.504C208.47 565.459 208.097 564.659 207.35 564.104C206.625 563.528 205.697 563.24 204.566 563.24C202.753 563.24 201.174 563.955 199.83 565.384L198.71 563.72C200.353 562.013 202.412 561.16 204.886 561.16C205.697 561.16 206.465 561.256 207.19 561.448C207.916 561.64 208.545 561.949 209.078 562.376C209.633 562.781 210.07 563.315 210.39 563.976C210.71 564.637 210.87 565.437 210.87 566.376V577H208.47ZM204.214 575.656C205.068 575.656 205.868 575.496 206.614 575.176C207.382 574.856 208.001 574.376 208.47 573.736V570.824C208.001 570.184 207.382 569.704 206.614 569.384C205.868 569.064 205.068 568.904 204.214 568.904C203.084 568.904 202.166 569.224 201.462 569.864C200.758 570.483 200.406 571.293 200.406 572.296C200.406 573.277 200.758 574.088 201.462 574.728C202.166 575.347 203.084 575.656 204.214 575.656ZM219.585 577.384C218.433 577.384 217.569 577.075 216.993 576.456C216.439 575.816 216.161 574.92 216.161 573.768V563.656H213.601V561.544H216.161V557.32H218.561V561.544H221.697V563.656H218.561V573.256C218.561 573.832 218.689 574.312 218.945 574.696C219.201 575.059 219.596 575.24 220.129 575.24C220.471 575.24 220.78 575.176 221.057 575.048C221.356 574.92 221.591 574.771 221.761 574.6L222.465 576.392C222.167 576.691 221.783 576.925 221.313 577.096C220.865 577.288 220.289 577.384 219.585 577.384ZM232.064 577.384C230.912 577.384 229.856 577.192 228.896 576.808C227.936 576.403 227.104 575.848 226.4 575.144C225.717 574.419 225.173 573.565 224.768 572.584C224.384 571.581 224.192 570.472 224.192 569.256C224.192 568.147 224.384 567.101 224.768 566.12C225.152 565.117 225.674 564.253 226.336 563.528C227.018 562.803 227.818 562.227 228.736 561.8C229.674 561.373 230.698 561.16 231.808 561.16C232.981 561.16 234.026 561.373 234.944 561.8C235.861 562.227 236.64 562.813 237.28 563.56C237.92 564.307 238.4 565.192 238.72 566.216C239.061 567.219 239.232 568.296 239.232 569.448V570.056H226.72C226.762 570.781 226.922 571.475 227.2 572.136C227.477 572.776 227.85 573.341 228.32 573.832C228.81 574.301 229.386 574.685 230.048 574.984C230.709 575.261 231.456 575.4 232.288 575.4C233.184 575.4 234.048 575.229 234.88 574.888C235.712 574.547 236.437 574.067 237.056 573.448L238.208 575.016C237.44 575.784 236.544 576.371 235.52 576.776C234.496 577.181 233.344 577.384 232.064 577.384ZM236.864 568.296C236.864 567.72 236.757 567.133 236.544 566.536C236.352 565.917 236.042 565.363 235.616 564.872C235.21 564.36 234.688 563.944 234.048 563.624C233.408 563.304 232.65 563.144 231.776 563.144C230.944 563.144 230.218 563.304 229.6 563.624C228.981 563.944 228.458 564.349 228.032 564.84C227.626 565.331 227.306 565.885 227.072 566.504C226.858 567.101 226.741 567.699 226.72 568.296H236.864ZM243.119 577V561.544H245.519V564.04C246.137 563.229 246.884 562.557 247.759 562.024C248.633 561.491 249.604 561.224 250.671 561.224V563.688C250.372 563.624 250.052 563.592 249.711 563.592C249.348 563.592 248.953 563.667 248.527 563.816C248.121 563.944 247.716 564.125 247.311 564.36C246.927 564.595 246.575 564.861 246.255 565.16C245.935 565.437 245.689 565.736 245.519 566.056V577H243.119ZM269.547 577.384C268.481 577.384 267.499 577.149 266.603 576.68C265.707 576.211 264.95 575.539 264.331 574.664V582.888H261.931V561.544H264.331V563.848C264.886 563.059 265.622 562.419 266.539 561.928C267.457 561.416 268.459 561.16 269.547 561.16C270.571 561.16 271.499 561.352 272.331 561.736C273.185 562.099 273.91 562.632 274.507 563.336C275.126 564.019 275.595 564.861 275.915 565.864C276.257 566.867 276.427 567.997 276.427 569.256C276.427 570.515 276.257 571.645 275.915 572.648C275.595 573.651 275.126 574.504 274.507 575.208C273.91 575.912 273.185 576.456 272.331 576.84C271.499 577.203 270.571 577.384 269.547 577.384ZM268.939 575.24C269.707 575.24 270.401 575.091 271.019 574.792C271.638 574.493 272.161 574.077 272.587 573.544C273.014 573.011 273.334 572.381 273.547 571.656C273.782 570.909 273.899 570.109 273.899 569.256C273.899 568.403 273.782 567.613 273.547 566.888C273.334 566.163 273.014 565.533 272.587 565C272.161 564.467 271.638 564.051 271.019 563.752C270.401 563.453 269.707 563.304 268.939 563.304C267.979 563.304 267.073 563.549 266.219 564.04C265.387 564.509 264.758 565.085 264.331 565.768V572.744C264.758 573.427 265.387 574.013 266.219 574.504C267.073 574.995 267.979 575.24 268.939 575.24ZM286.996 577.384C285.822 577.384 284.756 577.171 283.796 576.744C282.857 576.317 282.057 575.741 281.396 575.016C280.734 574.269 280.222 573.405 279.86 572.424C279.518 571.443 279.348 570.387 279.348 569.256C279.348 568.147 279.518 567.101 279.86 566.12C280.222 565.117 280.734 564.253 281.396 563.528C282.057 562.803 282.857 562.227 283.796 561.8C284.756 561.373 285.822 561.16 286.996 561.16C288.169 561.16 289.225 561.373 290.164 561.8C291.124 562.227 291.934 562.803 292.596 563.528C293.257 564.253 293.758 565.117 294.1 566.12C294.462 567.101 294.644 568.147 294.644 569.256C294.644 570.387 294.462 571.443 294.1 572.424C293.758 573.405 293.257 574.269 292.596 575.016C291.934 575.741 291.124 576.317 290.164 576.744C289.225 577.171 288.169 577.384 286.996 577.384ZM286.996 575.24C287.828 575.24 288.553 575.08 289.172 574.76C289.812 574.419 290.345 573.981 290.772 573.448C291.22 572.893 291.55 572.253 291.764 571.528C291.998 570.803 292.116 570.045 292.116 569.256C292.116 568.467 291.998 567.72 291.764 567.016C291.55 566.291 291.22 565.661 290.772 565.128C290.345 564.573 289.812 564.136 289.172 563.816C288.553 563.475 287.828 563.304 286.996 563.304C286.164 563.304 285.428 563.475 284.788 563.816C284.148 564.136 283.604 564.573 283.156 565.128C282.729 565.661 282.398 566.291 282.164 567.016C281.95 567.72 281.844 568.467 281.844 569.256C281.844 570.045 281.95 570.803 282.164 571.528C282.398 572.253 282.729 572.893 283.156 573.448C283.604 573.981 284.148 574.419 284.788 574.76C285.428 575.08 286.164 575.24 286.996 575.24ZM311.932 577L307.9 564.584L303.868 577H301.468L296.54 561.544H299.036L302.812 573.864L306.876 561.544H308.924L312.988 573.864L316.764 561.544H319.26L314.332 577H311.932ZM329.032 577.384C327.88 577.384 326.824 577.192 325.864 576.808C324.904 576.403 324.072 575.848 323.368 575.144C322.686 574.419 322.142 573.565 321.736 572.584C321.352 571.581 321.16 570.472 321.16 569.256C321.16 568.147 321.352 567.101 321.736 566.12C322.12 565.117 322.643 564.253 323.304 563.528C323.987 562.803 324.787 562.227 325.704 561.8C326.643 561.373 327.667 561.16 328.776 561.16C329.95 561.16 330.995 561.373 331.912 561.8C332.83 562.227 333.608 562.813 334.248 563.56C334.888 564.307 335.368 565.192 335.688 566.216C336.03 567.219 336.2 568.296 336.2 569.448V570.056H323.688C323.731 570.781 323.891 571.475 324.168 572.136C324.446 572.776 324.819 573.341 325.288 573.832C325.779 574.301 326.355 574.685 327.016 574.984C327.678 575.261 328.424 575.4 329.256 575.4C330.152 575.4 331.016 575.229 331.848 574.888C332.68 574.547 333.406 574.067 334.024 573.448L335.176 575.016C334.408 575.784 333.512 576.371 332.488 576.776C331.464 577.181 330.312 577.384 329.032 577.384ZM333.832 568.296C333.832 567.72 333.726 567.133 333.512 566.536C333.32 565.917 333.011 565.363 332.584 564.872C332.179 564.36 331.656 563.944 331.016 563.624C330.376 563.304 329.619 563.144 328.744 563.144C327.912 563.144 327.187 563.304 326.568 563.624C325.95 563.944 325.427 564.349 325 564.84C324.595 565.331 324.275 565.885 324.04 566.504C323.827 567.101 323.71 567.699 323.688 568.296H333.832ZM340.088 577V561.544H342.488V564.04C343.106 563.229 343.853 562.557 344.728 562.024C345.602 561.491 346.573 561.224 347.64 561.224V563.688C347.341 563.624 347.021 563.592 346.68 563.592C346.317 563.592 345.922 563.667 345.496 563.816C345.09 563.944 344.685 564.125 344.28 564.36C343.896 564.595 343.544 564.861 343.224 565.16C342.904 565.437 342.658 565.736 342.488 566.056V577H340.088ZM365.716 577.384C364.564 577.384 363.508 577.181 362.548 576.776C361.609 576.349 360.799 575.773 360.116 575.048C359.455 574.323 358.932 573.469 358.548 572.488C358.185 571.485 358.004 570.408 358.004 569.256C358.004 568.104 358.185 567.037 358.548 566.056C358.932 565.075 359.455 564.221 360.116 563.496C360.799 562.771 361.609 562.205 362.548 561.8C363.508 561.373 364.564 561.16 365.716 561.16C367.124 561.16 368.265 561.416 369.14 561.928C370.036 562.44 370.783 563.08 371.38 563.848L369.78 565.32C369.268 564.616 368.681 564.104 368.02 563.784C367.38 563.464 366.655 563.304 365.844 563.304C365.012 563.304 364.265 563.453 363.604 563.752C362.964 564.051 362.409 564.467 361.94 565C361.471 565.533 361.108 566.163 360.852 566.888C360.617 567.613 360.5 568.403 360.5 569.256C360.5 570.109 360.617 570.909 360.852 571.656C361.108 572.381 361.471 573.011 361.94 573.544C362.409 574.077 362.964 574.493 363.604 574.792C364.265 575.091 365.012 575.24 365.844 575.24C367.465 575.24 368.777 574.568 369.78 573.224L371.38 574.696C370.783 575.464 370.036 576.104 369.14 576.616C368.265 577.128 367.124 577.384 365.716 577.384ZM381.496 577.384C380.322 577.384 379.256 577.171 378.296 576.744C377.357 576.317 376.557 575.741 375.896 575.016C375.234 574.269 374.722 573.405 374.36 572.424C374.018 571.443 373.848 570.387 373.848 569.256C373.848 568.147 374.018 567.101 374.36 566.12C374.722 565.117 375.234 564.253 375.896 563.528C376.557 562.803 377.357 562.227 378.296 561.8C379.256 561.373 380.322 561.16 381.496 561.16C382.669 561.16 383.725 561.373 384.664 561.8C385.624 562.227 386.434 562.803 387.096 563.528C387.757 564.253 388.258 565.117 388.6 566.12C388.962 567.101 389.144 568.147 389.144 569.256C389.144 570.387 388.962 571.443 388.6 572.424C388.258 573.405 387.757 574.269 387.096 575.016C386.434 575.741 385.624 576.317 384.664 576.744C383.725 577.171 382.669 577.384 381.496 577.384ZM381.496 575.24C382.328 575.24 383.053 575.08 383.672 574.76C384.312 574.419 384.845 573.981 385.272 573.448C385.72 572.893 386.05 572.253 386.264 571.528C386.498 570.803 386.616 570.045 386.616 569.256C386.616 568.467 386.498 567.72 386.264 567.016C386.05 566.291 385.72 565.661 385.272 565.128C384.845 564.573 384.312 564.136 383.672 563.816C383.053 563.475 382.328 563.304 381.496 563.304C380.664 563.304 379.928 563.475 379.288 563.816C378.648 564.136 378.104 564.573 377.656 565.128C377.229 565.661 376.898 566.291 376.664 567.016C376.45 567.72 376.344 568.467 376.344 569.256C376.344 570.045 376.45 570.803 376.664 571.528C376.898 572.253 377.229 572.893 377.656 573.448C378.104 573.981 378.648 574.419 379.288 574.76C379.928 575.08 380.664 575.24 381.496 575.24ZM411.712 577V566.504C411.712 565.523 411.488 564.744 411.04 564.168C410.592 563.592 409.867 563.304 408.864 563.304C408.054 563.304 407.264 563.549 406.496 564.04C405.75 564.509 405.174 565.053 404.768 565.672V577H402.368V566.504C402.368 565.523 402.144 564.744 401.696 564.168C401.27 563.592 400.544 563.304 399.52 563.304C398.731 563.304 397.963 563.549 397.216 564.04C396.47 564.531 395.883 565.085 395.456 565.704V577H393.056V561.544H395.456V563.784C395.606 563.528 395.84 563.251 396.16 562.952C396.502 562.653 396.896 562.376 397.344 562.12C397.792 561.843 398.272 561.619 398.784 561.448C399.318 561.256 399.872 561.16 400.448 561.16C401.643 561.16 402.571 561.437 403.232 561.992C403.915 562.547 404.374 563.229 404.608 564.04C404.822 563.699 405.11 563.357 405.472 563.016C405.835 562.653 406.24 562.344 406.688 562.088C407.136 561.811 407.627 561.587 408.16 561.416C408.694 561.245 409.238 561.16 409.792 561.16C411.2 561.16 412.267 561.555 412.992 562.344C413.739 563.112 414.112 564.275 414.112 565.832V577H411.712ZM425.876 577.384C424.724 577.384 423.668 577.192 422.708 576.808C421.748 576.403 420.916 575.848 420.212 575.144C419.529 574.419 418.985 573.565 418.58 572.584C418.196 571.581 418.004 570.472 418.004 569.256C418.004 568.147 418.196 567.101 418.58 566.12C418.964 565.117 419.487 564.253 420.148 563.528C420.831 562.803 421.631 562.227 422.548 561.8C423.487 561.373 424.511 561.16 425.62 561.16C426.793 561.16 427.839 561.373 428.756 561.8C429.673 562.227 430.452 562.813 431.092 563.56C431.732 564.307 432.212 565.192 432.532 566.216C432.873 567.219 433.044 568.296 433.044 569.448V570.056H420.532C420.575 570.781 420.735 571.475 421.012 572.136C421.289 572.776 421.663 573.341 422.132 573.832C422.623 574.301 423.199 574.685 423.86 574.984C424.521 575.261 425.268 575.4 426.1 575.4C426.996 575.4 427.86 575.229 428.692 574.888C429.524 574.547 430.249 574.067 430.868 573.448L432.02 575.016C431.252 575.784 430.356 576.371 429.332 576.776C428.308 577.181 427.156 577.384 425.876 577.384ZM430.676 568.296C430.676 567.72 430.569 567.133 430.356 566.536C430.164 565.917 429.855 565.363 429.428 564.872C429.023 564.36 428.5 563.944 427.86 563.624C427.22 563.304 426.463 563.144 425.588 563.144C424.756 563.144 424.031 563.304 423.412 563.624C422.793 563.944 422.271 564.349 421.844 564.84C421.439 565.331 421.119 565.885 420.884 566.504C420.671 567.101 420.553 567.699 420.532 568.296H430.676ZM441.827 577.384C440.547 577.384 439.385 577.192 438.339 576.808C437.294 576.403 436.377 575.784 435.587 574.952L436.835 573.224C437.347 573.821 438.051 574.344 438.947 574.792C439.865 575.219 440.857 575.432 441.923 575.432C443.118 575.432 444.025 575.187 444.643 574.696C445.262 574.184 445.571 573.544 445.571 572.776C445.571 572.157 445.337 571.688 444.867 571.368C444.398 571.027 443.801 570.749 443.075 570.536C442.371 570.323 441.603 570.131 440.771 569.96C439.961 569.768 439.193 569.512 438.467 569.192C437.763 568.851 437.177 568.413 436.707 567.88C436.238 567.325 436.003 566.568 436.003 565.608C436.003 565.011 436.131 564.445 436.387 563.912C436.643 563.357 437.017 562.877 437.507 562.472C437.998 562.067 438.595 561.747 439.299 561.512C440.025 561.277 440.846 561.16 441.763 561.16C443.086 561.16 444.217 561.384 445.155 561.832C446.094 562.259 446.873 562.781 447.491 563.4L446.371 565.064C445.902 564.509 445.262 564.051 444.451 563.688C443.662 563.304 442.766 563.112 441.763 563.112C440.697 563.112 439.854 563.347 439.235 563.816C438.638 564.285 438.339 564.861 438.339 565.544C438.339 566.099 438.574 566.525 439.043 566.824C439.513 567.123 440.099 567.379 440.803 567.592C441.529 567.784 442.297 567.976 443.107 568.168C443.939 568.339 444.707 568.595 445.411 568.936C446.137 569.277 446.734 569.747 447.203 570.344C447.673 570.92 447.907 571.709 447.907 572.712C447.907 573.352 447.779 573.96 447.523 574.536C447.267 575.112 446.883 575.613 446.371 576.04C445.859 576.445 445.219 576.765 444.451 577C443.705 577.256 442.83 577.384 441.827 577.384ZM473.432 577L469.4 564.584L465.368 577H462.968L458.04 561.544H460.536L464.312 573.864L468.376 561.544H470.424L474.488 573.864L478.264 561.544H480.76L475.832 577H473.432ZM484.74 559.336C484.314 559.336 483.94 559.187 483.62 558.888C483.3 558.568 483.14 558.184 483.14 557.736C483.14 557.288 483.3 556.904 483.62 556.584C483.94 556.264 484.314 556.104 484.74 556.104C485.188 556.104 485.572 556.264 485.892 556.584C486.212 556.904 486.372 557.288 486.372 557.736C486.372 558.184 486.212 558.568 485.892 558.888C485.572 559.187 485.188 559.336 484.74 559.336ZM483.556 577V561.544H485.956V577H483.556ZM494.648 577.384C493.496 577.384 492.632 577.075 492.056 576.456C491.501 575.816 491.224 574.92 491.224 573.768V563.656H488.664V561.544H491.224V557.32H493.624V561.544H496.76V563.656H493.624V573.256C493.624 573.832 493.752 574.312 494.008 574.696C494.264 575.059 494.658 575.24 495.192 575.24C495.533 575.24 495.842 575.176 496.12 575.048C496.418 574.92 496.653 574.771 496.824 574.6L497.528 576.392C497.229 576.691 496.845 576.925 496.376 577.096C495.928 577.288 495.352 577.384 494.648 577.384ZM510.614 577V566.824C510.614 566.141 510.529 565.576 510.358 565.128C510.187 564.68 509.953 564.317 509.654 564.04C509.355 563.763 508.982 563.571 508.534 563.464C508.107 563.357 507.638 563.304 507.126 563.304C506.657 563.304 506.198 563.368 505.75 563.496C505.302 563.624 504.875 563.805 504.47 564.04C504.086 564.253 503.723 564.509 503.382 564.808C503.062 565.085 502.785 565.384 502.55 565.704V577H500.15V555.656H502.55V563.784C502.827 563.464 503.158 563.155 503.542 562.856C503.926 562.536 504.353 562.248 504.822 561.992C505.313 561.736 505.835 561.533 506.39 561.384C506.945 561.235 507.51 561.16 508.086 561.16C509.707 561.16 510.934 561.565 511.766 562.376C512.598 563.165 513.014 564.403 513.014 566.088V577H510.614ZM532.264 583.272C530.942 583.272 529.8 583.112 528.84 582.792C527.88 582.472 526.942 581.864 526.024 580.968L527.24 579.176C527.88 579.944 528.595 580.488 529.384 580.808C530.195 581.128 531.155 581.288 532.264 581.288C532.904 581.288 533.523 581.203 534.12 581.032C534.718 580.883 535.24 580.616 535.688 580.232C536.158 579.869 536.531 579.389 536.808 578.792C537.086 578.216 537.224 577.501 537.224 576.648V574.44C536.67 575.229 535.934 575.891 535.016 576.424C534.12 576.936 533.128 577.192 532.04 577.192C531.038 577.192 530.11 577.011 529.256 576.648C528.424 576.285 527.699 575.763 527.08 575.08C526.483 574.376 526.014 573.533 525.672 572.552C525.331 571.571 525.16 570.451 525.16 569.192C525.16 567.955 525.32 566.845 525.64 565.864C525.982 564.861 526.451 564.019 527.048 563.336C527.667 562.632 528.392 562.099 529.224 561.736C530.078 561.352 531.016 561.16 532.04 561.16C533.086 561.16 534.056 561.405 534.952 561.896C535.848 562.365 536.606 563.027 537.224 563.88V561.544H539.624V576.552C539.624 577.832 539.411 578.899 538.984 579.752C538.579 580.627 538.035 581.32 537.352 581.832C536.67 582.344 535.88 582.707 534.984 582.92C534.11 583.155 533.203 583.272 532.264 583.272ZM532.616 575.08C533.086 575.08 533.555 575.016 534.024 574.888C534.494 574.739 534.931 574.547 535.336 574.312C535.742 574.077 536.104 573.811 536.424 573.512C536.744 573.213 537.011 572.893 537.224 572.552V565.8C537.011 565.459 536.744 565.139 536.424 564.84C536.104 564.541 535.742 564.285 535.336 564.072C534.931 563.837 534.494 563.656 534.024 563.528C533.555 563.379 533.086 563.304 532.616 563.304C531.848 563.304 531.155 563.453 530.536 563.752C529.918 564.029 529.395 564.435 528.968 564.968C528.542 565.48 528.211 566.099 527.976 566.824C527.763 567.549 527.656 568.339 527.656 569.192C527.656 570.045 527.763 570.835 527.976 571.56C528.211 572.264 528.542 572.883 528.968 573.416C529.395 573.928 529.918 574.333 530.536 574.632C531.155 574.931 531.848 575.08 532.616 575.08ZM544.431 577V561.544H546.831V564.04C547.45 563.229 548.197 562.557 549.071 562.024C549.946 561.491 550.917 561.224 551.983 561.224V563.688C551.685 563.624 551.365 563.592 551.023 563.592C550.661 563.592 550.266 563.667 549.839 563.816C549.434 563.944 549.029 564.125 548.623 564.36C548.239 564.595 547.887 564.861 547.567 565.16C547.247 565.437 547.002 565.736 546.831 566.056V577H544.431ZM561.97 577.384C560.818 577.384 559.762 577.192 558.802 576.808C557.842 576.403 557.01 575.848 556.306 575.144C555.623 574.419 555.079 573.565 554.674 572.584C554.29 571.581 554.098 570.472 554.098 569.256C554.098 568.147 554.29 567.101 554.674 566.12C555.058 565.117 555.58 564.253 556.242 563.528C556.924 562.803 557.724 562.227 558.642 561.8C559.58 561.373 560.604 561.16 561.714 561.16C562.887 561.16 563.932 561.373 564.85 561.8C565.767 562.227 566.546 562.813 567.186 563.56C567.826 564.307 568.306 565.192 568.626 566.216C568.967 567.219 569.138 568.296 569.138 569.448V570.056H556.626C556.668 570.781 556.828 571.475 557.106 572.136C557.383 572.776 557.756 573.341 558.226 573.832C558.716 574.301 559.292 574.685 559.954 574.984C560.615 575.261 561.362 575.4 562.194 575.4C563.09 575.4 563.954 575.229 564.786 574.888C565.618 574.547 566.343 574.067 566.962 573.448L568.114 575.016C567.346 575.784 566.45 576.371 565.426 576.776C564.402 577.181 563.25 577.384 561.97 577.384ZM566.77 568.296C566.77 567.72 566.663 567.133 566.45 566.536C566.258 565.917 565.948 565.363 565.522 564.872C565.116 564.36 564.594 563.944 563.954 563.624C563.314 563.304 562.556 563.144 561.682 563.144C560.85 563.144 560.124 563.304 559.506 563.624C558.887 563.944 558.364 564.349 557.938 564.84C557.532 565.331 557.212 565.885 556.978 566.504C556.764 567.101 556.647 567.699 556.626 568.296H566.77ZM582.689 577V575.24C581.388 576.669 579.681 577.384 577.569 577.384C576.908 577.384 576.257 577.277 575.617 577.064C574.977 576.851 574.401 576.531 573.889 576.104C573.377 575.656 572.961 575.112 572.641 574.472C572.321 573.832 572.161 573.096 572.161 572.264C572.161 571.411 572.321 570.664 572.641 570.024C572.961 569.384 573.377 568.851 573.889 568.424C574.401 567.997 574.977 567.688 575.617 567.496C576.257 567.283 576.908 567.176 577.569 567.176C578.636 567.176 579.596 567.347 580.449 567.688C581.324 568.029 582.07 568.563 582.689 569.288V566.504C582.689 565.459 582.316 564.659 581.569 564.104C580.844 563.528 579.916 563.24 578.785 563.24C576.972 563.24 575.393 563.955 574.049 565.384L572.929 563.72C574.572 562.013 576.63 561.16 579.105 561.16C579.916 561.16 580.684 561.256 581.409 561.448C582.134 561.64 582.764 561.949 583.297 562.376C583.852 562.781 584.289 563.315 584.609 563.976C584.929 564.637 585.089 565.437 585.089 566.376V577H582.689ZM578.433 575.656C579.286 575.656 580.086 575.496 580.833 575.176C581.601 574.856 582.22 574.376 582.689 573.736V570.824C582.22 570.184 581.601 569.704 580.833 569.384C580.086 569.064 579.286 568.904 578.433 568.904C577.302 568.904 576.385 569.224 575.681 569.864C574.977 570.483 574.625 571.293 574.625 572.296C574.625 573.277 574.977 574.088 575.681 574.728C576.385 575.347 577.302 575.656 578.433 575.656ZM593.804 577.384C592.652 577.384 591.788 577.075 591.212 576.456C590.657 575.816 590.38 574.92 590.38 573.768V563.656H587.82V561.544H590.38V557.32H592.78V561.544H595.916V563.656H592.78V573.256C592.78 573.832 592.908 574.312 593.164 574.696C593.42 575.059 593.815 575.24 594.348 575.24C594.689 575.24 594.999 575.176 595.276 575.048C595.575 574.92 595.809 574.771 595.98 574.6L596.684 576.392C596.385 576.691 596.001 576.925 595.532 577.096C595.084 577.288 594.508 577.384 593.804 577.384ZM606.282 577.384C605.13 577.384 604.074 577.192 603.114 576.808C602.154 576.403 601.322 575.848 600.618 575.144C599.936 574.419 599.392 573.565 598.986 572.584C598.602 571.581 598.41 570.472 598.41 569.256C598.41 568.147 598.602 567.101 598.986 566.12C599.37 565.117 599.893 564.253 600.554 563.528C601.237 562.803 602.037 562.227 602.954 561.8C603.893 561.373 604.917 561.16 606.026 561.16C607.2 561.16 608.245 561.373 609.162 561.8C610.08 562.227 610.858 562.813 611.498 563.56C612.138 564.307 612.618 565.192 612.938 566.216C613.28 567.219 613.45 568.296 613.45 569.448V570.056H600.938C600.981 570.781 601.141 571.475 601.418 572.136C601.696 572.776 602.069 573.341 602.538 573.832C603.029 574.301 603.605 574.685 604.266 574.984C604.928 575.261 605.674 575.4 606.506 575.4C607.402 575.4 608.266 575.229 609.098 574.888C609.93 574.547 610.656 574.067 611.274 573.448L612.426 575.016C611.658 575.784 610.762 576.371 609.738 576.776C608.714 577.181 607.562 577.384 606.282 577.384ZM611.082 568.296C611.082 567.72 610.976 567.133 610.762 566.536C610.57 565.917 610.261 565.363 609.834 564.872C609.429 564.36 608.906 563.944 608.266 563.624C607.626 563.304 606.869 563.144 605.994 563.144C605.162 563.144 604.437 563.304 603.818 563.624C603.2 563.944 602.677 564.349 602.25 564.84C601.845 565.331 601.525 565.885 601.29 566.504C601.077 567.101 600.96 567.699 600.938 568.296H611.082ZM617.338 577V561.544H619.738V564.04C620.356 563.229 621.103 562.557 621.978 562.024C622.852 561.491 623.823 561.224 624.89 561.224V563.688C624.591 563.624 624.271 563.592 623.93 563.592C623.567 563.592 623.172 563.667 622.746 563.816C622.34 563.944 621.935 564.125 621.53 564.36C621.146 564.595 620.794 564.861 620.474 565.16C620.154 565.437 619.908 565.736 619.738 566.056V577H617.338ZM147.4 625V609.544H149.8V612.04C150.419 611.229 151.165 610.557 152.04 610.024C152.915 609.491 153.885 609.224 154.952 609.224V611.688C154.653 611.624 154.333 611.592 153.992 611.592C153.629 611.592 153.235 611.667 152.808 611.816C152.403 611.944 151.997 612.125 151.592 612.36C151.208 612.595 150.856 612.861 150.536 613.16C150.216 613.437 149.971 613.736 149.8 614.056V625H147.4ZM164.939 625.384C163.787 625.384 162.731 625.192 161.771 624.808C160.811 624.403 159.979 623.848 159.275 623.144C158.592 622.419 158.048 621.565 157.643 620.584C157.259 619.581 157.067 618.472 157.067 617.256C157.067 616.147 157.259 615.101 157.643 614.12C158.027 613.117 158.549 612.253 159.211 611.528C159.893 610.803 160.693 610.227 161.611 609.8C162.549 609.373 163.573 609.16 164.683 609.16C165.856 609.16 166.901 609.373 167.819 609.8C168.736 610.227 169.515 610.813 170.155 611.56C170.795 612.307 171.275 613.192 171.595 614.216C171.936 615.219 172.107 616.296 172.107 617.448V618.056H159.595C159.637 618.781 159.797 619.475 160.075 620.136C160.352 620.776 160.725 621.341 161.195 621.832C161.685 622.301 162.261 622.685 162.923 622.984C163.584 623.261 164.331 623.4 165.163 623.4C166.059 623.4 166.923 623.229 167.755 622.888C168.587 622.547 169.312 622.067 169.931 621.448L171.083 623.016C170.315 623.784 169.419 624.371 168.395 624.776C167.371 625.181 166.219 625.384 164.939 625.384ZM169.739 616.296C169.739 615.72 169.632 615.133 169.419 614.536C169.227 613.917 168.917 613.363 168.491 612.872C168.085 612.36 167.563 611.944 166.923 611.624C166.283 611.304 165.525 611.144 164.651 611.144C163.819 611.144 163.093 611.304 162.475 611.624C161.856 611.944 161.333 612.349 160.907 612.84C160.501 613.331 160.181 613.885 159.947 614.504C159.733 615.101 159.616 615.699 159.595 616.296H169.739ZM180.89 625.384C179.61 625.384 178.447 625.192 177.402 624.808C176.356 624.403 175.439 623.784 174.65 622.952L175.898 621.224C176.41 621.821 177.114 622.344 178.01 622.792C178.927 623.219 179.919 623.432 180.986 623.432C182.18 623.432 183.087 623.187 183.706 622.696C184.324 622.184 184.634 621.544 184.634 620.776C184.634 620.157 184.399 619.688 183.93 619.368C183.46 619.027 182.863 618.749 182.138 618.536C181.434 618.323 180.666 618.131 179.834 617.96C179.023 617.768 178.255 617.512 177.53 617.192C176.826 616.851 176.239 616.413 175.77 615.88C175.3 615.325 175.066 614.568 175.066 613.608C175.066 613.011 175.194 612.445 175.45 611.912C175.706 611.357 176.079 610.877 176.57 610.472C177.06 610.067 177.658 609.747 178.362 609.512C179.087 609.277 179.908 609.16 180.826 609.16C182.148 609.16 183.279 609.384 184.218 609.832C185.156 610.259 185.935 610.781 186.554 611.4L185.434 613.064C184.964 612.509 184.324 612.051 183.514 611.688C182.724 611.304 181.828 611.112 180.826 611.112C179.759 611.112 178.916 611.347 178.298 611.816C177.7 612.285 177.402 612.861 177.402 613.544C177.402 614.099 177.636 614.525 178.106 614.824C178.575 615.123 179.162 615.379 179.866 615.592C180.591 615.784 181.359 615.976 182.17 616.168C183.002 616.339 183.77 616.595 184.474 616.936C185.199 617.277 185.796 617.747 186.266 618.344C186.735 618.92 186.97 619.709 186.97 620.712C186.97 621.352 186.842 621.96 186.586 622.536C186.33 623.112 185.946 623.613 185.434 624.04C184.922 624.445 184.282 624.765 183.514 625C182.767 625.256 181.892 625.384 180.89 625.384ZM198.485 625.384C197.418 625.384 196.437 625.149 195.541 624.68C194.645 624.211 193.887 623.539 193.269 622.664V630.888H190.869V609.544H193.269V611.848C193.823 611.059 194.559 610.419 195.477 609.928C196.394 609.416 197.397 609.16 198.485 609.16C199.509 609.16 200.437 609.352 201.269 609.736C202.122 610.099 202.847 610.632 203.445 611.336C204.063 612.019 204.533 612.861 204.853 613.864C205.194 614.867 205.365 615.997 205.365 617.256C205.365 618.515 205.194 619.645 204.853 620.648C204.533 621.651 204.063 622.504 203.445 623.208C202.847 623.912 202.122 624.456 201.269 624.84C200.437 625.203 199.509 625.384 198.485 625.384ZM197.877 623.24C198.645 623.24 199.338 623.091 199.957 622.792C200.575 622.493 201.098 622.077 201.525 621.544C201.951 621.011 202.271 620.381 202.485 619.656C202.719 618.909 202.837 618.109 202.837 617.256C202.837 616.403 202.719 615.613 202.485 614.888C202.271 614.163 201.951 613.533 201.525 613C201.098 612.467 200.575 612.051 199.957 611.752C199.338 611.453 198.645 611.304 197.877 611.304C196.917 611.304 196.01 611.549 195.157 612.04C194.325 612.509 193.695 613.085 193.269 613.768V620.744C193.695 621.427 194.325 622.013 195.157 622.504C196.01 622.995 196.917 623.24 197.877 623.24ZM215.933 625.384C214.76 625.384 213.693 625.171 212.733 624.744C211.795 624.317 210.995 623.741 210.333 623.016C209.672 622.269 209.16 621.405 208.797 620.424C208.456 619.443 208.285 618.387 208.285 617.256C208.285 616.147 208.456 615.101 208.797 614.12C209.16 613.117 209.672 612.253 210.333 611.528C210.995 610.803 211.795 610.227 212.733 609.8C213.693 609.373 214.76 609.16 215.933 609.16C217.107 609.16 218.163 609.373 219.101 609.8C220.061 610.227 220.872 610.803 221.533 611.528C222.195 612.253 222.696 613.117 223.037 614.12C223.4 615.101 223.581 616.147 223.581 617.256C223.581 618.387 223.4 619.443 223.037 620.424C222.696 621.405 222.195 622.269 221.533 623.016C220.872 623.741 220.061 624.317 219.101 624.744C218.163 625.171 217.107 625.384 215.933 625.384ZM215.933 623.24C216.765 623.24 217.491 623.08 218.109 622.76C218.749 622.419 219.283 621.981 219.709 621.448C220.157 620.893 220.488 620.253 220.701 619.528C220.936 618.803 221.053 618.045 221.053 617.256C221.053 616.467 220.936 615.72 220.701 615.016C220.488 614.291 220.157 613.661 219.709 613.128C219.283 612.573 218.749 612.136 218.109 611.816C217.491 611.475 216.765 611.304 215.933 611.304C215.101 611.304 214.365 611.475 213.725 611.816C213.085 612.136 212.541 612.573 212.093 613.128C211.667 613.661 211.336 614.291 211.101 615.016C210.888 615.72 210.781 616.467 210.781 617.256C210.781 618.045 210.888 618.803 211.101 619.528C211.336 620.253 211.667 620.893 212.093 621.448C212.541 621.981 213.085 622.419 213.725 622.76C214.365 623.08 215.101 623.24 215.933 623.24ZM237.926 625V614.888C237.926 613.523 237.606 612.584 236.966 612.072C236.347 611.56 235.515 611.304 234.47 611.304C234 611.304 233.542 611.368 233.094 611.496C232.646 611.624 232.219 611.805 231.814 612.04C231.408 612.253 231.035 612.509 230.694 612.808C230.374 613.085 230.107 613.384 229.894 613.704V625H227.494V609.544H229.894V611.784C230.171 611.464 230.502 611.155 230.886 610.856C231.27 610.536 231.696 610.248 232.166 609.992C232.656 609.736 233.168 609.533 233.702 609.384C234.256 609.235 234.822 609.16 235.398 609.16C238.683 609.16 240.326 610.824 240.326 614.152V625H237.926ZM250.015 625.384C248.735 625.384 247.572 625.192 246.527 624.808C245.481 624.403 244.564 623.784 243.775 622.952L245.023 621.224C245.535 621.821 246.239 622.344 247.135 622.792C248.052 623.219 249.044 623.432 250.111 623.432C251.305 623.432 252.212 623.187 252.831 622.696C253.449 622.184 253.759 621.544 253.759 620.776C253.759 620.157 253.524 619.688 253.055 619.368C252.585 619.027 251.988 618.749 251.263 618.536C250.559 618.323 249.791 618.131 248.959 617.96C248.148 617.768 247.38 617.512 246.655 617.192C245.951 616.851 245.364 616.413 244.895 615.88C244.425 615.325 244.191 614.568 244.191 613.608C244.191 613.011 244.319 612.445 244.575 611.912C244.831 611.357 245.204 610.877 245.695 610.472C246.185 610.067 246.783 609.747 247.487 609.512C248.212 609.277 249.033 609.16 249.951 609.16C251.273 609.16 252.404 609.384 253.343 609.832C254.281 610.259 255.06 610.781 255.679 611.4L254.559 613.064C254.089 612.509 253.449 612.051 252.639 611.688C251.849 611.304 250.953 611.112 249.951 611.112C248.884 611.112 248.041 611.347 247.423 611.816C246.825 612.285 246.527 612.861 246.527 613.544C246.527 614.099 246.761 614.525 247.231 614.824C247.7 615.123 248.287 615.379 248.991 615.592C249.716 615.784 250.484 615.976 251.295 616.168C252.127 616.339 252.895 616.595 253.599 616.936C254.324 617.277 254.921 617.747 255.391 618.344C255.86 618.92 256.095 619.709 256.095 620.712C256.095 621.352 255.967 621.96 255.711 622.536C255.455 623.112 255.071 623.613 254.559 624.04C254.047 624.445 253.407 624.765 252.639 625C251.892 625.256 251.017 625.384 250.015 625.384ZM261.178 607.336C260.751 607.336 260.378 607.187 260.058 606.888C259.738 606.568 259.578 606.184 259.578 605.736C259.578 605.288 259.738 604.904 260.058 604.584C260.378 604.264 260.751 604.104 261.178 604.104C261.626 604.104 262.01 604.264 262.33 604.584C262.65 604.904 262.81 605.288 262.81 605.736C262.81 606.184 262.65 606.568 262.33 606.888C262.01 607.187 261.626 607.336 261.178 607.336ZM259.994 625V609.544H262.394V625H259.994ZM269.581 620.808C270.008 621.491 270.637 622.067 271.469 622.536C272.323 623.005 273.229 623.24 274.189 623.24C274.979 623.24 275.683 623.091 276.301 622.792C276.92 622.493 277.443 622.077 277.869 621.544C278.296 621.011 278.616 620.381 278.829 619.656C279.064 618.931 279.181 618.141 279.181 617.288C279.181 616.435 279.064 615.645 278.829 614.92C278.616 614.173 278.296 613.533 277.869 613C277.443 612.467 276.92 612.051 276.301 611.752C275.683 611.453 274.979 611.304 274.189 611.304C273.229 611.304 272.323 611.549 271.469 612.04C270.637 612.531 270.008 613.117 269.581 613.8V620.808ZM267.181 625V603.656H269.581V611.88C270.2 611.027 270.957 610.365 271.853 609.896C272.749 609.405 273.731 609.16 274.797 609.16C275.8 609.16 276.717 609.352 277.549 609.736C278.403 610.12 279.128 610.664 279.725 611.368C280.344 612.072 280.824 612.925 281.165 613.928C281.507 614.931 281.677 616.051 281.677 617.288C281.677 618.547 281.507 619.677 281.165 620.68C280.824 621.683 280.344 622.536 279.725 623.24C279.128 623.923 278.403 624.456 277.549 624.84C276.717 625.203 275.8 625.384 274.797 625.384C273.709 625.384 272.707 625.139 271.789 624.648C270.893 624.136 270.157 623.485 269.581 622.696V625H267.181ZM286.772 607.336C286.345 607.336 285.972 607.187 285.652 606.888C285.332 606.568 285.172 606.184 285.172 605.736C285.172 605.288 285.332 604.904 285.652 604.584C285.972 604.264 286.345 604.104 286.772 604.104C287.22 604.104 287.604 604.264 287.924 604.584C288.244 604.904 288.404 605.288 288.404 605.736C288.404 606.184 288.244 606.568 287.924 606.888C287.604 607.187 287.22 607.336 286.772 607.336ZM285.588 625V609.544H287.988V625H285.588ZM292.775 625V603.656H295.175V625H292.775ZM301.147 607.336C300.72 607.336 300.347 607.187 300.027 606.888C299.707 606.568 299.547 606.184 299.547 605.736C299.547 605.288 299.707 604.904 300.027 604.584C300.347 604.264 300.72 604.104 301.147 604.104C301.595 604.104 301.979 604.264 302.299 604.584C302.619 604.904 302.779 605.288 302.779 605.736C302.779 606.184 302.619 606.568 302.299 606.888C301.979 607.187 301.595 607.336 301.147 607.336ZM299.963 625V609.544H302.363V625H299.963ZM311.054 625.384C309.902 625.384 309.038 625.075 308.462 624.456C307.907 623.816 307.63 622.92 307.63 621.768V611.656H305.07V609.544H307.63V605.32H310.03V609.544H313.166V611.656H310.03V621.256C310.03 621.832 310.158 622.312 310.414 622.696C310.67 623.059 311.065 623.24 311.598 623.24C311.939 623.24 312.249 623.176 312.526 623.048C312.825 622.92 313.059 622.771 313.23 622.6L313.934 624.392C313.635 624.691 313.251 624.925 312.782 625.096C312.334 625.288 311.758 625.384 311.054 625.384ZM316.076 628.872C316.247 628.957 316.46 629.021 316.716 629.064C316.972 629.107 317.196 629.128 317.388 629.128C317.922 629.128 318.37 629.011 318.732 628.776C319.095 628.563 319.415 628.136 319.692 627.496L320.716 625.16L314.252 609.544H316.844L321.996 622.216L327.116 609.544H329.74L321.996 628.136C321.527 629.267 320.908 630.067 320.14 630.536C319.372 631.005 318.476 631.251 317.452 631.272C317.196 631.272 316.898 631.251 316.556 631.208C316.215 631.165 315.927 631.112 315.692 631.048L316.076 628.872ZM341.678 607.336C341.251 607.336 340.878 607.187 340.558 606.888C340.238 606.568 340.078 606.184 340.078 605.736C340.078 605.288 340.238 604.904 340.558 604.584C340.878 604.264 341.251 604.104 341.678 604.104C342.126 604.104 342.51 604.264 342.83 604.584C343.15 604.904 343.31 605.288 343.31 605.736C343.31 606.184 343.15 606.568 342.83 606.888C342.51 607.187 342.126 607.336 341.678 607.336ZM340.494 625V609.544H342.894V625H340.494ZM358.113 625V614.888C358.113 613.523 357.793 612.584 357.153 612.072C356.535 611.56 355.703 611.304 354.657 611.304C354.188 611.304 353.729 611.368 353.281 611.496C352.833 611.624 352.407 611.805 352.001 612.04C351.596 612.253 351.223 612.509 350.881 612.808C350.561 613.085 350.295 613.384 350.081 613.704V625H347.681V609.544H350.081V611.784C350.359 611.464 350.689 611.155 351.073 610.856C351.457 610.536 351.884 610.248 352.353 609.992C352.844 609.736 353.356 609.533 353.889 609.384C354.444 609.235 355.009 609.16 355.585 609.16C358.871 609.16 360.513 610.824 360.513 614.152V625H358.113ZM377.46 625.384C376.308 625.384 375.444 625.075 374.868 624.456C374.314 623.816 374.036 622.92 374.036 621.768V611.656H371.476V609.544H374.036V605.32H376.436V609.544H379.572V611.656H376.436V621.256C376.436 621.832 376.564 622.312 376.82 622.696C377.076 623.059 377.471 623.24 378.004 623.24C378.346 623.24 378.655 623.176 378.932 623.048C379.231 622.92 379.466 622.771 379.636 622.6L380.34 624.392C380.042 624.691 379.658 624.925 379.188 625.096C378.74 625.288 378.164 625.384 377.46 625.384ZM393.427 625V614.824C393.427 614.141 393.341 613.576 393.171 613.128C393 612.68 392.765 612.317 392.467 612.04C392.168 611.763 391.795 611.571 391.347 611.464C390.92 611.357 390.451 611.304 389.939 611.304C389.469 611.304 389.011 611.368 388.562 611.496C388.115 611.624 387.688 611.805 387.283 612.04C386.899 612.253 386.536 612.509 386.195 612.808C385.875 613.085 385.597 613.384 385.363 613.704V625H382.963V603.656H385.363V611.784C385.64 611.464 385.971 611.155 386.355 610.856C386.739 610.536 387.165 610.248 387.635 609.992C388.125 609.736 388.648 609.533 389.203 609.384C389.757 609.235 390.323 609.16 390.899 609.16C392.52 609.16 393.747 609.565 394.579 610.376C395.411 611.165 395.827 612.403 395.827 614.088V625H393.427ZM407.595 625.384C406.443 625.384 405.387 625.192 404.427 624.808C403.467 624.403 402.635 623.848 401.931 623.144C401.248 622.419 400.704 621.565 400.299 620.584C399.915 619.581 399.723 618.472 399.723 617.256C399.723 616.147 399.915 615.101 400.299 614.12C400.683 613.117 401.205 612.253 401.867 611.528C402.549 610.803 403.349 610.227 404.267 609.8C405.205 609.373 406.229 609.16 407.339 609.16C408.512 609.16 409.557 609.373 410.475 609.8C411.392 610.227 412.171 610.813 412.811 611.56C413.451 612.307 413.931 613.192 414.251 614.216C414.592 615.219 414.763 616.296 414.763 617.448V618.056H402.251C402.293 618.781 402.453 619.475 402.731 620.136C403.008 620.776 403.381 621.341 403.851 621.832C404.341 622.301 404.917 622.685 405.579 622.984C406.24 623.261 406.987 623.4 407.819 623.4C408.715 623.4 409.579 623.229 410.411 622.888C411.243 622.547 411.968 622.067 412.587 621.448L413.739 623.016C412.971 623.784 412.075 624.371 411.051 624.776C410.027 625.181 408.875 625.384 407.595 625.384ZM412.395 616.296C412.395 615.72 412.288 615.133 412.075 614.536C411.883 613.917 411.573 613.363 411.147 612.872C410.741 612.36 410.219 611.944 409.579 611.624C408.939 611.304 408.181 611.144 407.307 611.144C406.475 611.144 405.749 611.304 405.131 611.624C404.512 611.944 403.989 612.349 403.563 612.84C403.157 613.331 402.837 613.885 402.603 614.504C402.389 615.101 402.272 615.699 402.251 616.296H412.395ZM436.564 625V623.24C435.263 624.669 433.556 625.384 431.444 625.384C430.783 625.384 430.132 625.277 429.492 625.064C428.852 624.851 428.276 624.531 427.764 624.104C427.252 623.656 426.836 623.112 426.516 622.472C426.196 621.832 426.036 621.096 426.036 620.264C426.036 619.411 426.196 618.664 426.516 618.024C426.836 617.384 427.252 616.851 427.764 616.424C428.276 615.997 428.852 615.688 429.492 615.496C430.132 615.283 430.783 615.176 431.444 615.176C432.511 615.176 433.471 615.347 434.324 615.688C435.199 616.029 435.945 616.563 436.564 617.288V614.504C436.564 613.459 436.191 612.659 435.444 612.104C434.719 611.528 433.791 611.24 432.66 611.24C430.847 611.24 429.268 611.955 427.924 613.384L426.804 611.72C428.447 610.013 430.505 609.16 432.98 609.16C433.791 609.16 434.559 609.256 435.284 609.448C436.009 609.64 436.639 609.949 437.172 610.376C437.727 610.781 438.164 611.315 438.484 611.976C438.804 612.637 438.964 613.437 438.964 614.376V625H436.564ZM432.308 623.656C433.161 623.656 433.961 623.496 434.708 623.176C435.476 622.856 436.095 622.376 436.564 621.736V618.824C436.095 618.184 435.476 617.704 434.708 617.384C433.961 617.064 433.161 616.904 432.308 616.904C431.177 616.904 430.26 617.224 429.556 617.864C428.852 618.483 428.5 619.293 428.5 620.296C428.5 621.277 428.852 622.088 429.556 622.728C430.26 623.347 431.177 623.656 432.308 623.656ZM449.983 631.272C448.66 631.272 447.519 631.112 446.559 630.792C445.599 630.472 444.66 629.864 443.743 628.968L444.959 627.176C445.599 627.944 446.314 628.488 447.103 628.808C447.914 629.128 448.874 629.288 449.983 629.288C450.623 629.288 451.242 629.203 451.839 629.032C452.436 628.883 452.959 628.616 453.407 628.232C453.876 627.869 454.25 627.389 454.527 626.792C454.804 626.216 454.943 625.501 454.943 624.648V622.44C454.388 623.229 453.652 623.891 452.735 624.424C451.839 624.936 450.847 625.192 449.759 625.192C448.756 625.192 447.828 625.011 446.975 624.648C446.143 624.285 445.418 623.763 444.799 623.08C444.202 622.376 443.732 621.533 443.391 620.552C443.05 619.571 442.879 618.451 442.879 617.192C442.879 615.955 443.039 614.845 443.359 613.864C443.7 612.861 444.17 612.019 444.767 611.336C445.386 610.632 446.111 610.099 446.943 609.736C447.796 609.352 448.735 609.16 449.759 609.16C450.804 609.16 451.775 609.405 452.671 609.896C453.567 610.365 454.324 611.027 454.943 611.88V609.544H457.343V624.552C457.343 625.832 457.13 626.899 456.703 627.752C456.298 628.627 455.754 629.32 455.071 629.832C454.388 630.344 453.599 630.707 452.703 630.92C451.828 631.155 450.922 631.272 449.983 631.272ZM450.335 623.08C450.804 623.08 451.274 623.016 451.743 622.888C452.212 622.739 452.65 622.547 453.055 622.312C453.46 622.077 453.823 621.811 454.143 621.512C454.463 621.213 454.73 620.893 454.943 620.552V613.8C454.73 613.459 454.463 613.139 454.143 612.84C453.823 612.541 453.46 612.285 453.055 612.072C452.65 611.837 452.212 611.656 451.743 611.528C451.274 611.379 450.804 611.304 450.335 611.304C449.567 611.304 448.874 611.453 448.255 611.752C447.636 612.029 447.114 612.435 446.687 612.968C446.26 613.48 445.93 614.099 445.695 614.824C445.482 615.549 445.375 616.339 445.375 617.192C445.375 618.045 445.482 618.835 445.695 619.56C445.93 620.264 446.26 620.883 446.687 621.416C447.114 621.928 447.636 622.333 448.255 622.632C448.874 622.931 449.567 623.08 450.335 623.08ZM469.126 625.384C467.974 625.384 466.918 625.192 465.958 624.808C464.998 624.403 464.166 623.848 463.462 623.144C462.779 622.419 462.235 621.565 461.83 620.584C461.446 619.581 461.254 618.472 461.254 617.256C461.254 616.147 461.446 615.101 461.83 614.12C462.214 613.117 462.737 612.253 463.398 611.528C464.081 610.803 464.881 610.227 465.798 609.8C466.737 609.373 467.761 609.16 468.87 609.16C470.043 609.16 471.089 609.373 472.006 609.8C472.923 610.227 473.702 610.813 474.342 611.56C474.982 612.307 475.462 613.192 475.782 614.216C476.123 615.219 476.294 616.296 476.294 617.448V618.056H463.782C463.825 618.781 463.985 619.475 464.262 620.136C464.539 620.776 464.913 621.341 465.382 621.832C465.873 622.301 466.449 622.685 467.11 622.984C467.771 623.261 468.518 623.4 469.35 623.4C470.246 623.4 471.11 623.229 471.942 622.888C472.774 622.547 473.499 622.067 474.118 621.448L475.27 623.016C474.502 623.784 473.606 624.371 472.582 624.776C471.558 625.181 470.406 625.384 469.126 625.384ZM473.926 616.296C473.926 615.72 473.819 615.133 473.606 614.536C473.414 613.917 473.105 613.363 472.678 612.872C472.273 612.36 471.75 611.944 471.11 611.624C470.47 611.304 469.713 611.144 468.838 611.144C468.006 611.144 467.281 611.304 466.662 611.624C466.043 611.944 465.521 612.349 465.094 612.84C464.689 613.331 464.369 613.885 464.134 614.504C463.921 615.101 463.803 615.699 463.782 616.296H473.926ZM495.183 625.384C494.01 625.384 492.943 625.171 491.983 624.744C491.045 624.317 490.245 623.741 489.583 623.016C488.922 622.269 488.41 621.405 488.047 620.424C487.706 619.443 487.535 618.387 487.535 617.256C487.535 616.147 487.706 615.101 488.047 614.12C488.41 613.117 488.922 612.253 489.583 611.528C490.245 610.803 491.045 610.227 491.983 609.8C492.943 609.373 494.01 609.16 495.183 609.16C496.357 609.16 497.413 609.373 498.351 609.8C499.311 610.227 500.122 610.803 500.783 611.528C501.445 612.253 501.946 613.117 502.287 614.12C502.65 615.101 502.831 616.147 502.831 617.256C502.831 618.387 502.65 619.443 502.287 620.424C501.946 621.405 501.445 622.269 500.783 623.016C500.122 623.741 499.311 624.317 498.351 624.744C497.413 625.171 496.357 625.384 495.183 625.384ZM495.183 623.24C496.015 623.24 496.741 623.08 497.359 622.76C497.999 622.419 498.533 621.981 498.959 621.448C499.407 620.893 499.738 620.253 499.951 619.528C500.186 618.803 500.303 618.045 500.303 617.256C500.303 616.467 500.186 615.72 499.951 615.016C499.738 614.291 499.407 613.661 498.959 613.128C498.533 612.573 497.999 612.136 497.359 611.816C496.741 611.475 496.015 611.304 495.183 611.304C494.351 611.304 493.615 611.475 492.975 611.816C492.335 612.136 491.791 612.573 491.343 613.128C490.917 613.661 490.586 614.291 490.351 615.016C490.138 615.72 490.031 616.467 490.031 617.256C490.031 618.045 490.138 618.803 490.351 619.528C490.586 620.253 490.917 620.893 491.343 621.448C491.791 621.981 492.335 622.419 492.975 622.76C493.615 623.08 494.351 623.24 495.183 623.24ZM507.416 625V611.656H504.856V609.544H507.416V608.36C507.416 606.76 507.81 605.523 508.6 604.648C509.41 603.773 510.509 603.336 511.896 603.336C512.514 603.336 513.09 603.421 513.624 603.592C514.157 603.763 514.669 604.072 515.16 604.52L514.168 606.088C513.912 605.853 513.624 605.672 513.304 605.544C513.005 605.395 512.653 605.32 512.248 605.32C511.458 605.32 510.85 605.587 510.424 606.12C510.018 606.632 509.816 607.379 509.816 608.36V609.544H512.952V611.656H509.816V625H507.416ZM539.384 625L537.496 620.264H526.872L524.984 625H521.944L530.52 603.656H533.816L542.424 625H539.384ZM532.184 606.408L527.64 617.896H536.696L532.184 606.408ZM545.215 625V603.656H547.871V625H545.215ZM567.841 625.384C566.689 625.384 565.633 625.181 564.673 624.776C563.734 624.349 562.924 623.773 562.241 623.048C561.58 622.323 561.057 621.469 560.673 620.488C560.31 619.485 560.129 618.408 560.129 617.256C560.129 616.104 560.31 615.037 560.673 614.056C561.057 613.075 561.58 612.221 562.241 611.496C562.924 610.771 563.734 610.205 564.673 609.8C565.633 609.373 566.689 609.16 567.841 609.16C569.249 609.16 570.39 609.416 571.265 609.928C572.161 610.44 572.908 611.08 573.505 611.848L571.905 613.32C571.393 612.616 570.806 612.104 570.145 611.784C569.505 611.464 568.78 611.304 567.969 611.304C567.137 611.304 566.39 611.453 565.729 611.752C565.089 612.051 564.534 612.467 564.065 613C563.596 613.533 563.233 614.163 562.977 614.888C562.742 615.613 562.625 616.403 562.625 617.256C562.625 618.109 562.742 618.909 562.977 619.656C563.233 620.381 563.596 621.011 564.065 621.544C564.534 622.077 565.089 622.493 565.729 622.792C566.39 623.091 567.137 623.24 567.969 623.24C569.59 623.24 570.902 622.568 571.905 621.224L573.505 622.696C572.908 623.464 572.161 624.104 571.265 624.616C570.39 625.128 569.249 625.384 567.841 625.384ZM583.621 625.384C582.447 625.384 581.381 625.171 580.421 624.744C579.482 624.317 578.682 623.741 578.021 623.016C577.359 622.269 576.847 621.405 576.485 620.424C576.143 619.443 575.973 618.387 575.973 617.256C575.973 616.147 576.143 615.101 576.485 614.12C576.847 613.117 577.359 612.253 578.021 611.528C578.682 610.803 579.482 610.227 580.421 609.8C581.381 609.373 582.447 609.16 583.621 609.16C584.794 609.16 585.85 609.373 586.789 609.8C587.749 610.227 588.559 610.803 589.221 611.528C589.882 612.253 590.383 613.117 590.725 614.12C591.087 615.101 591.269 616.147 591.269 617.256C591.269 618.387 591.087 619.443 590.725 620.424C590.383 621.405 589.882 622.269 589.221 623.016C588.559 623.741 587.749 624.317 586.789 624.744C585.85 625.171 584.794 625.384 583.621 625.384ZM583.621 623.24C584.453 623.24 585.178 623.08 585.797 622.76C586.437 622.419 586.97 621.981 587.397 621.448C587.845 620.893 588.175 620.253 588.389 619.528C588.623 618.803 588.741 618.045 588.741 617.256C588.741 616.467 588.623 615.72 588.389 615.016C588.175 614.291 587.845 613.661 587.397 613.128C586.97 612.573 586.437 612.136 585.797 611.816C585.178 611.475 584.453 611.304 583.621 611.304C582.789 611.304 582.053 611.475 581.413 611.816C580.773 612.136 580.229 612.573 579.781 613.128C579.354 613.661 579.023 614.291 578.789 615.016C578.575 615.72 578.469 616.467 578.469 617.256C578.469 618.045 578.575 618.803 578.789 619.528C579.023 620.253 579.354 620.893 579.781 621.448C580.229 621.981 580.773 622.419 581.413 622.76C582.053 623.08 582.789 623.24 583.621 623.24ZM595.181 625V603.656H597.581V625H595.181ZM602.369 625V603.656H604.769V625H602.369ZM619.22 625V623.24C617.919 624.669 616.212 625.384 614.1 625.384C613.439 625.384 612.788 625.277 612.148 625.064C611.508 624.851 610.932 624.531 610.42 624.104C609.908 623.656 609.492 623.112 609.172 622.472C608.852 621.832 608.692 621.096 608.692 620.264C608.692 619.411 608.852 618.664 609.172 618.024C609.492 617.384 609.908 616.851 610.42 616.424C610.932 615.997 611.508 615.688 612.148 615.496C612.788 615.283 613.439 615.176 614.1 615.176C615.167 615.176 616.127 615.347 616.98 615.688C617.855 616.029 618.602 616.563 619.22 617.288V614.504C619.22 613.459 618.847 612.659 618.1 612.104C617.375 611.528 616.447 611.24 615.316 611.24C613.503 611.24 611.924 611.955 610.58 613.384L609.46 611.72C611.103 610.013 613.162 609.16 615.636 609.16C616.447 609.16 617.215 609.256 617.94 609.448C618.666 609.64 619.295 609.949 619.828 610.376C620.383 610.781 620.82 611.315 621.14 611.976C621.46 612.637 621.62 613.437 621.62 614.376V625H619.22ZM614.964 623.656C615.818 623.656 616.618 623.496 617.364 623.176C618.132 622.856 618.751 622.376 619.22 621.736V618.824C618.751 618.184 618.132 617.704 617.364 617.384C616.618 617.064 615.818 616.904 614.964 616.904C613.834 616.904 612.916 617.224 612.212 617.864C611.508 618.483 611.156 619.293 611.156 620.296C611.156 621.277 611.508 622.088 612.212 622.728C612.916 623.347 613.834 623.656 614.964 623.656ZM628.831 620.808C629.258 621.491 629.887 622.067 630.719 622.536C631.573 623.005 632.479 623.24 633.439 623.24C634.229 623.24 634.933 623.091 635.551 622.792C636.17 622.493 636.693 622.077 637.119 621.544C637.546 621.011 637.866 620.381 638.079 619.656C638.314 618.931 638.431 618.141 638.431 617.288C638.431 616.435 638.314 615.645 638.079 614.92C637.866 614.173 637.546 613.533 637.119 613C636.693 612.467 636.17 612.051 635.551 611.752C634.933 611.453 634.229 611.304 633.439 611.304C632.479 611.304 631.573 611.549 630.719 612.04C629.887 612.531 629.258 613.117 628.831 613.8V620.808ZM626.431 625V603.656H628.831V611.88C629.45 611.027 630.207 610.365 631.103 609.896C631.999 609.405 632.981 609.16 634.047 609.16C635.05 609.16 635.967 609.352 636.799 609.736C637.653 610.12 638.378 610.664 638.975 611.368C639.594 612.072 640.074 612.925 640.415 613.928C640.757 614.931 640.927 616.051 640.927 617.288C640.927 618.547 640.757 619.677 640.415 620.68C640.074 621.683 639.594 622.536 638.975 623.24C638.378 623.923 637.653 624.456 636.799 624.84C635.967 625.203 635.05 625.384 634.047 625.384C632.959 625.384 631.957 625.139 631.039 624.648C630.143 624.136 629.407 623.485 628.831 622.696V625H626.431ZM651.59 625.384C650.416 625.384 649.35 625.171 648.39 624.744C647.451 624.317 646.651 623.741 645.99 623.016C645.328 622.269 644.816 621.405 644.454 620.424C644.112 619.443 643.942 618.387 643.942 617.256C643.942 616.147 644.112 615.101 644.454 614.12C644.816 613.117 645.328 612.253 645.99 611.528C646.651 610.803 647.451 610.227 648.39 609.8C649.35 609.373 650.416 609.16 651.59 609.16C652.763 609.16 653.819 609.373 654.758 609.8C655.718 610.227 656.528 610.803 657.19 611.528C657.851 612.253 658.352 613.117 658.694 614.12C659.056 615.101 659.238 616.147 659.238 617.256C659.238 618.387 659.056 619.443 658.694 620.424C658.352 621.405 657.851 622.269 657.19 623.016C656.528 623.741 655.718 624.317 654.758 624.744C653.819 625.171 652.763 625.384 651.59 625.384ZM651.59 623.24C652.422 623.24 653.147 623.08 653.766 622.76C654.406 622.419 654.939 621.981 655.366 621.448C655.814 620.893 656.144 620.253 656.358 619.528C656.592 618.803 656.71 618.045 656.71 617.256C656.71 616.467 656.592 615.72 656.358 615.016C656.144 614.291 655.814 613.661 655.366 613.128C654.939 612.573 654.406 612.136 653.766 611.816C653.147 611.475 652.422 611.304 651.59 611.304C650.758 611.304 650.022 611.475 649.382 611.816C648.742 612.136 648.198 612.573 647.75 613.128C647.323 613.661 646.992 614.291 646.758 615.016C646.544 615.72 646.438 616.467 646.438 617.256C646.438 618.045 646.544 618.803 646.758 619.528C646.992 620.253 647.323 620.893 647.75 621.448C648.198 621.981 648.742 622.419 649.382 622.76C650.022 623.08 650.758 623.24 651.59 623.24ZM663.15 625V609.544H665.55V612.04C666.169 611.229 666.915 610.557 667.79 610.024C668.665 609.491 669.635 609.224 670.702 609.224V611.688C670.403 611.624 670.083 611.592 669.742 611.592C669.379 611.592 668.985 611.667 668.558 611.816C668.153 611.944 667.747 612.125 667.342 612.36C666.958 612.595 666.606 612.861 666.286 613.16C665.966 613.437 665.721 613.736 665.55 614.056V625H663.15ZM683.377 625V623.24C682.075 624.669 680.369 625.384 678.257 625.384C677.595 625.384 676.945 625.277 676.305 625.064C675.665 624.851 675.089 624.531 674.577 624.104C674.065 623.656 673.649 623.112 673.329 622.472C673.009 621.832 672.849 621.096 672.849 620.264C672.849 619.411 673.009 618.664 673.329 618.024C673.649 617.384 674.065 616.851 674.577 616.424C675.089 615.997 675.665 615.688 676.305 615.496C676.945 615.283 677.595 615.176 678.257 615.176C679.323 615.176 680.283 615.347 681.137 615.688C682.011 616.029 682.758 616.563 683.377 617.288V614.504C683.377 613.459 683.003 612.659 682.257 612.104C681.531 611.528 680.603 611.24 679.473 611.24C677.659 611.24 676.081 611.955 674.737 613.384L673.617 611.72C675.259 610.013 677.318 609.16 679.793 609.16C680.603 609.16 681.371 609.256 682.097 609.448C682.822 609.64 683.451 609.949 683.985 610.376C684.539 610.781 684.977 611.315 685.297 611.976C685.617 612.637 685.777 613.437 685.777 614.376V625H683.377ZM679.121 623.656C679.974 623.656 680.774 623.496 681.521 623.176C682.289 622.856 682.907 622.376 683.377 621.736V618.824C682.907 618.184 682.289 617.704 681.521 617.384C680.774 617.064 679.974 616.904 679.121 616.904C677.99 616.904 677.073 617.224 676.369 617.864C675.665 618.483 675.312 619.293 675.312 620.296C675.312 621.277 675.665 622.088 676.369 622.728C677.073 623.347 677.99 623.656 679.121 623.656ZM694.492 625.384C693.34 625.384 692.476 625.075 691.9 624.456C691.345 623.816 691.068 622.92 691.068 621.768V611.656H688.508V609.544H691.068V605.32H693.468V609.544H696.604V611.656H693.468V621.256C693.468 621.832 693.596 622.312 693.852 622.696C694.108 623.059 694.502 623.24 695.036 623.24C695.377 623.24 695.686 623.176 695.964 623.048C696.262 622.92 696.497 622.771 696.668 622.6L697.372 624.392C697.073 624.691 696.689 624.925 696.22 625.096C695.772 625.288 695.196 625.384 694.492 625.384ZM701.178 607.336C700.751 607.336 700.378 607.187 700.058 606.888C699.738 606.568 699.578 606.184 699.578 605.736C699.578 605.288 699.738 604.904 700.058 604.584C700.378 604.264 700.751 604.104 701.178 604.104C701.626 604.104 702.01 604.264 702.33 604.584C702.65 604.904 702.81 605.288 702.81 605.736C702.81 606.184 702.65 606.568 702.33 606.888C702.01 607.187 701.626 607.336 701.178 607.336ZM699.994 625V609.544H702.394V625H699.994ZM713.933 625.384C712.76 625.384 711.693 625.171 710.733 624.744C709.795 624.317 708.995 623.741 708.333 623.016C707.672 622.269 707.16 621.405 706.797 620.424C706.456 619.443 706.285 618.387 706.285 617.256C706.285 616.147 706.456 615.101 706.797 614.12C707.16 613.117 707.672 612.253 708.333 611.528C708.995 610.803 709.795 610.227 710.733 609.8C711.693 609.373 712.76 609.16 713.933 609.16C715.107 609.16 716.163 609.373 717.101 609.8C718.061 610.227 718.872 610.803 719.533 611.528C720.195 612.253 720.696 613.117 721.037 614.12C721.4 615.101 721.581 616.147 721.581 617.256C721.581 618.387 721.4 619.443 721.037 620.424C720.696 621.405 720.195 622.269 719.533 623.016C718.872 623.741 718.061 624.317 717.101 624.744C716.163 625.171 715.107 625.384 713.933 625.384ZM713.933 623.24C714.765 623.24 715.491 623.08 716.109 622.76C716.749 622.419 717.283 621.981 717.709 621.448C718.157 620.893 718.488 620.253 718.701 619.528C718.936 618.803 719.053 618.045 719.053 617.256C719.053 616.467 718.936 615.72 718.701 615.016C718.488 614.291 718.157 613.661 717.709 613.128C717.283 612.573 716.749 612.136 716.109 611.816C715.491 611.475 714.765 611.304 713.933 611.304C713.101 611.304 712.365 611.475 711.725 611.816C711.085 612.136 710.541 612.573 710.093 613.128C709.667 613.661 709.336 614.291 709.101 615.016C708.888 615.72 708.781 616.467 708.781 617.256C708.781 618.045 708.888 618.803 709.101 619.528C709.336 620.253 709.667 620.893 710.093 621.448C710.541 621.981 711.085 622.419 711.725 622.76C712.365 623.08 713.101 623.24 713.933 623.24ZM735.926 625V614.888C735.926 613.523 735.606 612.584 734.966 612.072C734.347 611.56 733.515 611.304 732.47 611.304C732 611.304 731.542 611.368 731.094 611.496C730.646 611.624 730.219 611.805 729.814 612.04C729.408 612.253 729.035 612.509 728.694 612.808C728.374 613.085 728.107 613.384 727.894 613.704V625H725.494V609.544H727.894V611.784C728.171 611.464 728.502 611.155 728.886 610.856C729.27 610.536 729.696 610.248 730.166 609.992C730.656 609.736 731.168 609.533 731.702 609.384C732.256 609.235 732.822 609.16 733.398 609.16C736.683 609.16 738.326 610.824 738.326 614.152V625H735.926Z" fill="white"/>
<defs>
<linearGradient id="paint0_linear_1166_1564" x1="817.593" y1="878" x2="848.478" y2="-0.492784" gradientUnits="userSpaceOnUse">
<stop offset="0.268085" stop-color="#8F1F57"/>
<stop offset="1" stop-color="#FB41AA"/>
</linearGradient>
</defs>
</svg>
