<svg xmlns="http://www.w3.org/2000/svg" viewBox="0 0 64 64" fill="none">
  <defs>
    <linearGradient id="of-mark" x1="14" y1="60" x2="50" y2="4" gradientUnits="userSpaceOnUse">
      <stop offset="0.1" stop-color="#80074D"></stop>
      <stop offset="1" stop-color="#FB41AA"></stop>
    </linearGradient>
  </defs>
  <circle cx="32" cy="32" r="30" fill="url(#of-mark)"></circle>
  <path d="M20.5 41.5c-3.8 0-6.2-2.8-6.2-6.8 0-4 2.4-6.8 6.2-6.8s6.2 2.8 6.2 6.8c0 4-2.4 6.8-6.2 6.8Zm0-3c2 0 3.1-1.6 3.1-3.8 0-2.2-1.1-3.8-3.1-3.8s-3.1 1.6-3.1 3.8c0 2.2 1.1 3.8 3.1 3.8Z" fill="#fff"></path>
  <path d="M29.6 41.5V24.2h11v3h-7.7v4.1h7.4v3h-7.4v7.2h-3.3Z" fill="#fff"></path>
</svg>